<svg width="60" height="60" viewBox="0 0 60 60" fill="none" xmlns="http://www.w3.org/2000/svg">
<path fill-rule="evenodd" clip-rule="evenodd" d="M30 60C46.5685 60 60 46.5685 60 30C60 13.4315 46.5685 0 30 0C13.4315 0 0 13.4315 0 30C0 46.5685 13.4315 60 30 60Z" fill="#F7FBFE"/>
<path d="M50.0397 10.0028V13.2797L27.0088 12.0528V8.80202C27.0088 8.2389 27.4823 7.79163 28.0445 7.82367L49.1155 9.02444C49.6342 9.054 50.0397 9.48325 50.0397 10.0028Z" fill="white" stroke="#5F9EAF" stroke-width="0.5"/>
<path fill-rule="evenodd" clip-rule="evenodd" d="M26.561 11.4709L26.7699 11.0731L26.949 11.4915L50.3231 12.7349L50.6519 12.7524L50.612 13.0792L45.9988 50.8608L45.964 51.1459L45.6773 51.1306L22.1556 49.8784L21.8542 49.9141L21.8517 49.8622L21.8006 49.8595L21.8372 49.5584L21.837 49.5531L21.833 49.4613C21.8295 49.3804 21.8246 49.2606 21.8187 49.1044C21.807 48.792 21.7916 48.3339 21.7766 47.7504C21.7466 46.5834 21.7184 44.9145 21.7255 42.9054C21.7396 38.8882 21.8947 33.5068 22.4594 28.0568C23.0249 22.5991 24.0234 18.5039 24.8826 15.769C25.3121 14.4017 25.7069 13.3745 25.9952 12.6874C26.1394 12.3438 26.2569 12.0852 26.3389 11.9115C26.3799 11.8247 26.412 11.7591 26.4342 11.7148C26.4373 11.7085 26.4402 11.7027 26.4429 11.6972L26.4711 11.4661L26.561 11.4709ZM26.1749 13.9007C25.9625 14.464 25.7222 15.1482 25.4693 15.9534C24.6219 18.6505 23.6322 22.7052 23.0711 28.1202C22.5092 33.5429 22.3545 38.9023 22.3404 42.9076C22.3373 43.7938 22.3411 44.6135 22.3489 45.3527L26.1749 13.9007ZM22.4981 49.2185L26.8913 13.1038C27.1013 13.739 27.3732 14.6326 27.6741 15.7968C28.36 18.4506 29.1965 22.5108 29.7925 28.121C30.3892 33.7379 30.6986 38.8292 30.8589 42.5164C30.939 44.3599 30.9818 45.852 31.0046 46.8829C31.016 47.3983 31.0224 47.7985 31.0259 48.0695L31.0276 48.2075L22.4981 49.2185ZM25.7407 49.4534L31.3738 48.7857L31.6464 48.7534L31.6451 48.4788L31.3376 48.4803C31.6451 48.4788 31.6451 48.4788 31.6451 48.4787L31.6451 48.4784L31.6451 48.477L31.6451 48.4719L31.6449 48.4517L31.6443 48.3722C31.6437 48.3021 31.6426 48.1979 31.6408 48.0615C31.6373 47.7887 31.6309 47.3867 31.6194 46.8693C31.5966 45.8345 31.5536 44.338 31.4733 42.4897C31.3126 38.7934 31.0024 33.6888 30.404 28.056C29.805 22.4166 28.9632 18.3267 28.2695 15.6429C27.9227 14.301 27.6129 13.3107 27.3891 12.6541C27.3166 12.4415 27.2532 12.2639 27.2004 12.1207L49.9616 13.3315L45.4232 50.5012L25.7407 49.4534Z" fill="#2B869E"/>
<path fill-rule="evenodd" clip-rule="evenodd" d="M45.6934 50.8235L54.8854 49.7339C54.8854 49.7339 55.4607 40.5918 54.2657 29.3421C53.0707 18.0924 50.2894 13.042 50.2894 13.042C50.2894 13.042 48.0593 18.4694 46.9327 29.3421C45.8061 40.2148 45.6934 50.8235 45.6934 50.8235Z" fill="#1C3260"/>
<path d="M39.7851 25.6298C39.51 25.3467 39.1443 25.1908 38.7552 25.1908C38.6841 25.1908 38.6138 25.196 38.5443 25.2064C38.6107 24.7443 38.4642 24.2705 38.1324 23.9291C37.8573 23.6459 37.4915 23.49 37.1024 23.49C36.7133 23.49 36.3475 23.6459 36.0724 23.929C35.8145 24.1944 35.6635 24.5469 35.6472 24.9216C35.6337 25.2326 35.7137 25.5369 35.8743 25.7955L32.6522 29.1114C32.4033 28.9223 32.1028 28.8199 31.7886 28.8199C31.3995 28.8199 31.0338 28.9758 30.7587 29.2589C30.4836 29.542 30.332 29.9184 30.332 30.3189C30.332 30.7193 30.4836 31.0957 30.7587 31.3788C31.0338 31.6619 31.3995 31.8178 31.7886 31.8178C31.8597 31.8178 31.93 31.8126 31.9995 31.8022C31.933 32.2643 32.0796 32.7381 32.4113 33.0795C32.6865 33.3627 33.0522 33.5186 33.4414 33.5186C33.8304 33.5186 34.1963 33.3627 34.4714 33.0795C34.7428 32.8002 34.8943 32.4289 34.8979 32.034C34.901 31.7053 34.8014 31.3911 34.6147 31.131L37.8164 27.8362C38.0787 28.0644 38.4076 28.1887 38.7551 28.1887C39.1442 28.1887 39.51 28.0328 39.7851 27.7497C40.353 27.1652 40.353 26.2142 39.7851 25.6298Z" fill="white"/>
<path d="M46.1875 50.3221L50.3067 47.4583V32.4458V47.4583L54.2169 49.1631" stroke="#5F9EAF" stroke-width="0.5" stroke-linecap="round" stroke-linejoin="round"/>
<path fill-rule="evenodd" clip-rule="evenodd" d="M23.7195 44.0486C32.4492 44.0486 39.526 43.5098 39.526 42.8451C39.526 42.1805 32.4492 41.6417 23.7195 41.6417C14.9899 41.6417 7.91309 42.1805 7.91309 42.8451C7.91309 43.5098 14.9899 44.0486 23.7195 44.0486Z" fill="#1C3260" stroke="#1C3261" stroke-width="0.5"/>
<path fill-rule="evenodd" clip-rule="evenodd" d="M22.3369 46.2741C23.415 46.2741 24.3716 45.7498 24.9698 44.9403C25.7267 46.1399 27.0568 46.9358 28.5713 46.9358C29.3063 46.9358 29.9979 46.7484 30.6016 46.4183C31.2769 47.8957 32.7585 48.9211 34.4775 48.9211C36.8334 48.9211 38.7432 46.9953 38.7432 44.6197C38.7432 42.244 36.8334 40.3182 34.4775 40.3182C34.0178 40.3182 33.5751 40.3915 33.1602 40.5272C33.3715 40.1769 33.4932 39.7655 33.4932 39.3255C33.4932 38.0463 32.4648 37.0094 31.1963 37.0094C30.5277 37.0094 29.9259 37.2974 29.5062 37.7571C29.2359 36.2042 27.8918 35.0241 26.2744 35.0241C24.4622 35.0241 22.9932 36.5055 22.9932 38.3329C22.9932 38.8652 23.1178 39.3681 23.3393 39.8137C23.0233 39.7115 22.6865 39.6564 22.3369 39.6564C21.9962 39.6564 21.6676 39.7088 21.3587 39.806C20.7909 38.5467 19.5325 37.6711 18.0713 37.6711C16.8495 37.6711 15.7695 38.2833 15.1165 39.22C14.7065 39.0741 14.2653 38.9947 13.8057 38.9947C11.631 38.9947 9.86816 40.7723 9.86816 42.9652C9.86816 45.1581 11.631 46.9358 13.8057 46.9358C15.2999 46.9358 16.5998 46.0965 17.2669 44.8598C17.5255 44.9192 17.7948 44.9505 18.0713 44.9505C18.5833 44.9505 19.0705 44.843 19.5118 44.6491C20.0831 45.6219 21.1345 46.2741 22.3369 46.2741Z" fill="white"/>
<path d="M24.9698 44.9403L25.2473 44.7652C25.1894 44.6736 25.0901 44.6164 24.9818 44.6124C24.8735 44.6084 24.7703 44.6581 24.7059 44.7453L24.9698 44.9403ZM30.6016 46.4183L30.9 46.2819C30.8621 46.199 30.7915 46.1356 30.7051 46.1069C30.6186 46.0782 30.5241 46.0867 30.4442 46.1304L30.6016 46.4183ZM33.1602 40.5272L32.8792 40.3578C32.8085 40.4752 32.8181 40.6242 32.9035 40.7315C32.9889 40.8388 33.1319 40.8817 33.2623 40.8391L33.1602 40.5272ZM29.5062 37.7571L29.1829 37.8134C29.2043 37.9367 29.2941 38.037 29.4143 38.0721C29.5344 38.1072 29.6641 38.0708 29.7485 37.9784L29.5062 37.7571ZM23.3393 39.8137L23.2384 40.1259C23.364 40.1665 23.5017 40.1278 23.5879 40.0278C23.6741 39.9278 23.6919 39.7858 23.6331 39.6676L23.3393 39.8137ZM21.3587 39.806L21.0596 39.9408C21.1279 40.0923 21.2986 40.1688 21.4571 40.119L21.3587 39.806ZM15.1165 39.22L15.0065 39.5291C15.1458 39.5787 15.3011 39.529 15.3857 39.4076L15.1165 39.22ZM17.2669 44.8598L17.3403 44.54C17.1964 44.507 17.0482 44.5741 16.9781 44.704L17.2669 44.8598ZM19.5118 44.6491L19.7947 44.4829C19.7104 44.3395 19.5321 44.2818 19.3798 44.3487L19.5118 44.6491ZM24.7059 44.7453C24.1665 45.4752 23.3058 45.9459 22.3369 45.9459V46.6022C23.5241 46.6022 24.5767 46.0244 25.2337 45.1353L24.7059 44.7453ZM28.5713 46.6077C27.1749 46.6077 25.9471 45.8743 25.2473 44.7652L24.6922 45.1154C25.5063 46.4056 26.9387 47.264 28.5713 47.264V46.6077ZM30.4442 46.1304C29.8874 46.4348 29.2498 46.6077 28.5713 46.6077V47.264C29.3628 47.264 30.1083 47.0619 30.759 46.7062L30.4442 46.1304ZM30.3032 46.5547C31.0294 48.1435 32.6242 49.2492 34.4775 49.2492V48.593C32.8927 48.593 31.5244 47.6479 30.9 46.2819L30.3032 46.5547ZM34.4775 49.2492C37.0172 49.2492 39.0713 47.1739 39.0713 44.6197H38.415C38.415 46.8167 36.6496 48.593 34.4775 48.593V49.2492ZM39.0713 44.6197C39.0713 42.0654 37.0172 39.9901 34.4775 39.9901V40.6463C36.6496 40.6463 38.415 42.4226 38.415 44.6197H39.0713ZM34.4775 39.9901C33.9827 39.9901 33.5056 40.069 33.0582 40.2153L33.2623 40.8391C33.6446 40.714 34.0529 40.6463 34.4775 40.6463V39.9901ZM33.165 39.3255C33.165 39.7043 33.0605 40.0572 32.8792 40.3578L33.4412 40.6966C33.6825 40.2965 33.8213 39.8268 33.8213 39.3255H33.165ZM31.1963 37.3375C32.281 37.3375 33.165 38.225 33.165 39.3255H33.8213C33.8213 37.8677 32.6486 36.6812 31.1963 36.6812V37.3375ZM29.7485 37.9784C30.109 37.5835 30.6242 37.3375 31.1963 37.3375V36.6812C30.4313 36.6812 29.7428 37.0113 29.2638 37.5359L29.7485 37.9784ZM26.2744 35.3522C27.7276 35.3522 28.9392 36.4129 29.1829 37.8134L29.8294 37.7009C29.5327 35.9954 28.056 34.6959 26.2744 34.6959V35.3522ZM23.3213 38.3329C23.3213 36.6841 24.646 35.3522 26.2744 35.3522V34.6959C24.2784 34.6959 22.665 36.3268 22.665 38.3329H23.3213ZM23.6331 39.6676C23.4337 39.2665 23.3213 38.8135 23.3213 38.3329H22.665C22.665 38.9169 22.8019 39.4698 23.0455 39.9597L23.6331 39.6676ZM22.3369 39.9845C22.6518 39.9845 22.9546 40.0342 23.2384 40.1259L23.4402 39.5014C23.092 39.3889 22.7212 39.3283 22.3369 39.3283V39.9845ZM21.4571 40.119C21.7346 40.0317 22.03 39.9845 22.3369 39.9845V39.3283C21.9624 39.3283 21.6007 39.3859 21.2602 39.493L21.4571 40.119ZM18.0713 37.9992C19.3976 37.9992 20.5424 38.7938 21.0596 39.9408L21.6578 39.6711C21.0394 38.2996 19.6674 37.343 18.0713 37.343V37.9992ZM15.3857 39.4076C15.9804 38.5545 16.9621 37.9992 18.0713 37.9992V37.343C16.737 37.343 15.5587 38.012 14.8473 39.0323L15.3857 39.4076ZM13.8057 39.3228C14.2272 39.3228 14.6312 39.3956 15.0065 39.5291L15.2265 38.9109C14.7817 38.7525 14.3033 38.6665 13.8057 38.6665V39.3228ZM10.1963 42.9652C10.1963 40.951 11.8148 39.3228 13.8057 39.3228V38.6665C11.4472 38.6665 9.54004 40.5937 9.54004 42.9652H10.1963ZM13.8057 46.6077C11.8148 46.6077 10.1963 44.9795 10.1963 42.9652H9.54004C9.54004 45.3368 11.4472 47.264 13.8057 47.264V46.6077ZM16.9781 44.704C16.3655 45.8397 15.1736 46.6077 13.8057 46.6077V47.264C15.4263 47.264 16.8341 46.3533 17.5557 45.0156L16.9781 44.704ZM18.0713 44.6224C17.8197 44.6224 17.575 44.5939 17.3403 44.54L17.1935 45.1796C17.476 45.2445 17.7699 45.2787 18.0713 45.2787V44.6224ZM19.3798 44.3487C18.9793 44.5247 18.537 44.6224 18.0713 44.6224V45.2787C18.6297 45.2787 19.1617 45.1613 19.6437 44.9495L19.3798 44.3487ZM22.3369 45.9459C21.2565 45.9459 20.31 45.3603 19.7947 44.4829L19.2288 44.8153C19.8562 45.8834 21.0125 46.6022 22.3369 46.6022V45.9459Z" fill="#1C3260"/>
<path fill-rule="evenodd" clip-rule="evenodd" d="M24.6338 42.9652C25.5399 42.9652 26.2744 42.2245 26.2744 41.3108C26.2744 40.3971 25.5399 39.6564 24.6338 39.6564C23.7277 39.6564 22.9932 40.3971 22.9932 41.3108C22.9932 42.2245 23.7277 42.9652 24.6338 42.9652Z" fill="white" stroke="#1C3260" stroke-width="0.65625" stroke-linejoin="round"/>
<path fill-rule="evenodd" clip-rule="evenodd" d="M25.9463 40.9799C26.4899 40.9799 26.9307 40.5355 26.9307 39.9873C26.9307 39.4391 26.4899 38.9947 25.9463 38.9947C25.4026 38.9947 24.9619 39.4391 24.9619 39.9873C24.9619 40.5355 25.4026 40.9799 25.9463 40.9799Z" fill="#1C3260"/>
<path fill-rule="evenodd" clip-rule="evenodd" d="M18.0713 47.5976C19.7023 47.5976 21.0244 46.2643 21.0244 44.6196C21.0244 42.975 19.7023 41.6417 18.0713 41.6417C16.4403 41.6417 15.1182 42.975 15.1182 44.6196C15.1182 46.2643 16.4403 47.5976 18.0713 47.5976Z" fill="white" stroke="#1C3260" stroke-width="0.65625" stroke-linejoin="round"/>
<path fill-rule="evenodd" clip-rule="evenodd" d="M38.1018 43.3451H39.2148L42.6076 50.259C42.1095 50.1631 41.4362 50.0744 40.619 49.9929C39.4568 49.877 37.9858 49.7741 36.2774 49.6885C32.8604 49.5173 28.4865 49.4146 23.72 49.4146C18.9635 49.4146 14.598 49.5169 11.1842 49.6874C9.47739 49.7727 8.00669 49.8752 6.84303 49.9907C6.00766 50.0736 5.32159 50.164 4.81787 50.2618L8.22461 43.3451H9.33816C8.50207 43.206 8.00426 43.0525 7.92478 42.891C7.89134 42.9146 7.86359 42.9465 7.8448 42.9847L7.91353 42.8451C7.91353 42.6667 8.42337 42.4974 9.33816 42.3451H7.91353H7.75798C7.66275 42.3451 7.57579 42.3992 7.53371 42.4847L7.46498 42.6242L3.51337 50.6471L3.33598 51.0072C3.29782 51.0847 3.30234 51.1764 3.34793 51.2497C3.39351 51.323 3.47371 51.3676 3.56006 51.3677L3.96154 51.368L4.35523 51.3683C4.8577 51.5076 5.71564 51.6335 6.84716 51.7457C8.01107 51.8611 9.48171 51.9635 11.1882 52.0487C14.6014 52.2192 18.9654 52.3214 23.72 52.3214C28.3897 52.3214 32.6825 52.2228 36.068 52.0578C39.4097 51.8949 41.8935 51.6664 42.9739 51.3974L43.4777 51.3978L43.8792 51.3981C43.9655 51.3981 44.0458 51.3536 44.0915 51.2804C44.1372 51.2071 44.1418 51.1154 44.1038 51.0379L43.9269 50.6775L39.9753 42.6249L39.9067 42.485C39.8647 42.3994 39.7776 42.3451 39.6822 42.3451H39.5264H38.1018C39.0166 42.4974 39.5264 42.6667 39.5264 42.8451L39.5951 42.985C39.5763 42.9468 39.5486 42.9148 39.5151 42.8911C39.4354 43.0526 38.9377 43.206 38.1018 43.3451ZM3.96191 50.868L4.13931 50.5078C4.10116 50.5853 4.10568 50.677 4.15126 50.7503C4.19685 50.8236 4.27705 50.8682 4.36339 50.8683L3.96191 50.868ZM43.2887 50.5118L43.478 50.8978L42.9431 50.8974C42.9221 50.8973 42.9012 50.9 42.8809 50.9052C41.8761 51.1626 39.4306 51.3933 36.0436 51.5584C32.6679 51.7229 28.3834 51.8214 23.72 51.8214C18.9718 51.8214 14.6163 51.7193 11.2131 51.5494C9.51134 51.4644 8.04946 51.3625 6.8965 51.2482C5.73743 51.1332 4.90757 51.0072 4.4591 50.8781C4.43668 50.8716 4.41346 50.8683 4.39013 50.8683L4.38768 50.8683C4.41115 50.8683 4.4345 50.865 4.45705 50.8585C4.90442 50.7294 5.73359 50.6032 6.89242 50.4882C8.0451 50.3738 9.50703 50.2719 11.2091 50.1868C14.6129 50.0167 18.9699 49.9146 23.72 49.9146C28.4801 49.9146 32.8455 50.0172 36.2524 50.1879C37.9561 50.2733 39.4182 50.3756 40.5694 50.4904C41.727 50.6058 42.5524 50.7324 42.9938 50.8617C43.089 50.8896 43.1915 50.8586 43.2554 50.7828C43.3192 50.707 43.3322 50.6008 43.2887 50.5118Z" fill="#FEC3BF"/>
<path d="M39.2148 43.3451L39.5094 43.2006C39.4543 43.0882 39.34 43.017 39.2148 43.017V43.3451ZM38.1018 43.3451L38.0479 43.0215C37.8795 43.0495 37.7607 43.202 37.7748 43.3722C37.7889 43.5423 37.9311 43.6733 38.1018 43.6733V43.3451ZM42.6076 50.259L42.5456 50.5812C42.6678 50.6047 42.7928 50.5571 42.8684 50.4582C42.9439 50.3593 42.957 50.2261 42.9022 50.1144L42.6076 50.259ZM40.619 49.9929L40.6516 49.6664L40.619 49.9929ZM36.2774 49.6885L36.261 50.0162L36.2774 49.6885ZM11.1842 49.6874L11.1678 49.3597L11.1842 49.6874ZM6.84303 49.9907L6.87544 50.3172L6.84303 49.9907ZM4.81787 50.2618L4.52351 50.1168C4.46844 50.2286 4.48147 50.3619 4.55713 50.461C4.6328 50.56 4.75804 50.6076 4.88038 50.5839L4.81787 50.2618ZM8.22461 43.3451V43.017C8.09962 43.017 7.98549 43.088 7.93026 43.2002L8.22461 43.3451ZM9.33816 43.3451V43.6733C9.5089 43.6733 9.6511 43.5423 9.66517 43.3722C9.67923 43.202 9.56046 43.0495 9.39204 43.0215L9.33816 43.3451ZM7.92478 42.891L8.21921 42.7461C8.17682 42.66 8.0988 42.5967 8.00572 42.573C7.91265 42.5493 7.81387 42.5676 7.73543 42.623L7.92478 42.891ZM7.55044 42.8397C7.47037 43.0023 7.53725 43.199 7.69982 43.279C7.86239 43.3591 8.05908 43.2922 8.13916 43.1297L7.55044 42.8397ZM7.91353 42.8451L8.20788 42.9901C8.2301 42.945 8.24165 42.8954 8.24165 42.8451H7.91353ZM9.33816 42.3451L9.39204 42.6688C9.56046 42.6408 9.67923 42.4883 9.66517 42.3181C9.6511 42.1479 9.5089 42.017 9.33816 42.017V42.3451ZM7.53371 42.4847L7.23935 42.3397V42.3397L7.53371 42.4847ZM7.46498 42.6242L7.75934 42.7692V42.7692L7.46498 42.6242ZM3.51337 50.6471L3.80773 50.7921H3.80773L3.51337 50.6471ZM3.33598 51.0072L3.04162 50.8622L3.04162 50.8622L3.33598 51.0072ZM3.34793 51.2497L3.06926 51.4229L3.06926 51.4229L3.34793 51.2497ZM3.56006 51.3677L3.56031 51.0396H3.56031L3.56006 51.3677ZM3.96154 51.368L3.96178 51.0399H3.96178L3.96154 51.368ZM4.35523 51.3683L4.44288 51.0521C4.41441 51.0442 4.38502 51.0402 4.35548 51.0402L4.35523 51.3683ZM6.84716 51.7457L6.81478 52.0723H6.81478L6.84716 51.7457ZM11.1882 52.0487L11.2045 51.721L11.1882 52.0487ZM36.068 52.0578L36.084 52.3856L36.068 52.0578ZM42.9739 51.3974L42.9742 51.0693C42.9474 51.0692 42.9206 51.0725 42.8946 51.079L42.9739 51.3974ZM43.4777 51.3978L43.4779 51.0696L43.4777 51.3978ZM43.8792 51.3981L43.8789 51.7262L43.8792 51.3981ZM44.0915 51.2804L44.3699 51.454L44.3699 51.454L44.0915 51.2804ZM44.1038 51.0379L43.8092 51.1825V51.1825L44.1038 51.0379ZM43.9269 50.6775L43.6323 50.822V50.822L43.9269 50.6775ZM39.9753 42.6249L39.6807 42.7694L39.6807 42.7694L39.9753 42.6249ZM39.9067 42.485L39.6121 42.6296V42.6296L39.9067 42.485ZM38.1018 42.3451V42.017C37.9311 42.017 37.7889 42.1479 37.7748 42.3181C37.7607 42.4883 37.8795 42.6408 38.0479 42.6688L38.1018 42.3451ZM39.5264 42.8451H39.1983C39.1983 42.8953 39.2098 42.9447 39.2319 42.9897L39.5264 42.8451ZM39.5951 42.985L39.3005 43.1296C39.3803 43.2922 39.5769 43.3594 39.7396 43.2796C39.9023 43.1997 39.9695 43.0031 39.8896 42.8405L39.5951 42.985ZM39.5151 42.8911L39.7047 42.6233C39.6263 42.5678 39.5276 42.5495 39.4345 42.573C39.3414 42.5966 39.2633 42.6598 39.2208 42.7459L39.5151 42.8911ZM4.43367 50.6528C4.51374 50.4902 4.44686 50.2936 4.28429 50.2135C4.12172 50.1334 3.92503 50.2003 3.84495 50.3629L4.43367 50.6528ZM3.96191 50.868L3.66756 50.723C3.61748 50.8247 3.62341 50.945 3.68325 51.0412C3.74308 51.1375 3.84834 51.196 3.96167 51.1961L3.96191 50.868ZM4.36315 51.1964C4.54437 51.1966 4.69138 51.0498 4.69152 50.8685C4.69165 50.6873 4.54486 50.5403 4.36364 50.5402L4.36315 51.1964ZM43.478 50.8978L43.4778 51.2259C43.5911 51.226 43.6965 51.1676 43.7565 51.0714C43.8164 50.9753 43.8225 50.8549 43.7726 50.7532L43.478 50.8978ZM43.2887 50.5118L43.5832 50.3673C43.5034 50.2047 43.3069 50.1375 43.1442 50.2172C42.9816 50.2969 42.9143 50.4934 42.994 50.6561L43.2887 50.5118ZM42.9431 50.8974L42.9434 50.5692H42.9434L42.9431 50.8974ZM42.8809 50.9052L42.7994 50.5873L42.7994 50.5873L42.8809 50.9052ZM36.0436 51.5584L36.0277 51.2307L36.0436 51.5584ZM11.2131 51.5494L11.1968 51.8771L11.2131 51.5494ZM6.8965 51.2482L6.86412 51.5747H6.86412L6.8965 51.2482ZM4.4591 50.8781L4.36832 51.1934L4.36833 51.1934L4.4591 50.8781ZM4.39013 50.8683L4.38987 51.1964H4.38989L4.39013 50.8683ZM4.38768 50.8683L4.38771 50.5402C4.20654 50.5402 4.05964 50.687 4.05956 50.8682C4.05948 51.0493 4.20625 51.1963 4.38743 51.1964L4.38768 50.8683ZM4.45705 50.8585L4.54805 51.1738H4.54805L4.45705 50.8585ZM6.89242 50.4882L6.92483 50.8147L6.89242 50.4882ZM11.2091 50.1868L11.2255 50.5145L11.2091 50.1868ZM36.2524 50.1879L36.236 50.5156L36.2524 50.1879ZM40.5694 50.4904L40.602 50.1639L40.5694 50.4904ZM42.9938 50.8617L43.0861 50.5468L43.0861 50.5468L42.9938 50.8617ZM43.2554 50.7828L43.5064 50.9941L43.5064 50.9941L43.2554 50.7828ZM39.2148 43.017H38.1018V43.6733H39.2148V43.017ZM42.9022 50.1144L39.5094 43.2006L38.9203 43.4897L42.313 50.4035L42.9022 50.1144ZM40.5865 50.3194C41.3998 50.4005 42.0618 50.4881 42.5456 50.5812L42.6696 49.9368C42.1572 49.8381 41.4725 49.7482 40.6516 49.6664L40.5865 50.3194ZM36.261 50.0162C37.9663 50.1017 39.4315 50.2042 40.5865 50.3194L40.6516 49.6664C39.4821 49.5497 38.0053 49.4466 36.2939 49.3608L36.261 50.0162ZM23.72 49.7427C28.4823 49.7427 32.8506 49.8453 36.261 50.0162L36.2939 49.3608C32.8702 49.1892 28.4907 49.0864 23.72 49.0864V49.7427ZM11.2005 50.0152C14.6078 49.8449 18.9677 49.7427 23.72 49.7427V49.0864C18.9593 49.0864 14.5882 49.1888 11.1678 49.3597L11.2005 50.0152ZM6.87544 50.3172C8.0319 50.2024 9.49684 50.1003 11.2005 50.0152L11.1678 49.3597C9.45793 49.4452 7.98148 49.5479 6.81063 49.6642L6.87544 50.3172ZM4.88038 50.5839C5.36941 50.489 6.04385 50.3997 6.87544 50.3172L6.81063 49.6642C5.97148 49.7474 5.27377 49.839 4.75536 49.9396L4.88038 50.5839ZM7.93026 43.2002L4.52351 50.1168L5.11223 50.4067L8.51897 43.4901L7.93026 43.2002ZM9.33816 43.017H8.22461V43.6733H9.33816V43.017ZM7.63035 43.0358C7.69573 43.1687 7.81561 43.2494 7.90259 43.2976C8.00005 43.3516 8.11858 43.3979 8.24833 43.4392C8.50914 43.5221 8.86036 43.5982 9.28428 43.6688L9.39204 43.0215C8.97988 42.9529 8.66414 42.8827 8.44715 42.8138C8.338 42.7791 8.26492 42.7481 8.22057 42.7235C8.16573 42.6931 8.19357 42.694 8.21921 42.7461L7.63035 43.0358ZM8.13916 43.1297C8.1333 43.1415 8.12456 43.1516 8.11414 43.159L7.73543 42.623C7.65812 42.6776 7.59388 42.7515 7.55044 42.8397L8.13916 43.1297ZM7.61917 42.7002L7.55044 42.8397L8.13916 43.1297L8.20788 42.9901L7.61917 42.7002ZM9.28428 42.0215C8.82155 42.0985 8.44374 42.1824 8.1755 42.2753C8.04352 42.3209 7.91821 42.3753 7.81967 42.4441C7.73368 42.5041 7.5854 42.6337 7.5854 42.8451H8.24165C8.24165 42.9673 8.15711 43.0089 8.19529 42.9822C8.22093 42.9643 8.28026 42.9334 8.39009 42.8954C8.60547 42.8209 8.93998 42.7441 9.39204 42.6688L9.28428 42.0215ZM7.91353 42.6733H9.33816V42.017H7.91353V42.6733ZM7.75798 42.6733H7.91353V42.017H7.75798V42.6733ZM7.82807 42.6297C7.81492 42.6564 7.78774 42.6733 7.75798 42.6733V42.017C7.53776 42.017 7.33666 42.1421 7.23935 42.3397L7.82807 42.6297ZM7.75934 42.7692L7.82807 42.6297L7.23935 42.3397L7.17063 42.4792L7.75934 42.7692ZM3.80773 50.7921L7.75934 42.7692L7.17063 42.4792L3.21901 50.5021L3.80773 50.7921ZM3.63033 51.1522L3.80773 50.7921L3.21901 50.5021L3.04162 50.8622L3.63033 51.1522ZM3.6266 51.0764C3.64084 51.0994 3.64225 51.128 3.63033 51.1522L3.04162 50.8622C2.95339 51.0414 2.96384 51.2533 3.06926 51.4229L3.6266 51.0764ZM3.56031 51.0396C3.58729 51.0396 3.61235 51.0535 3.6266 51.0764L3.06926 51.4229C3.17468 51.5925 3.36014 51.6957 3.55981 51.6958L3.56031 51.0396ZM3.96178 51.0399L3.56031 51.0396L3.55981 51.6958L3.96129 51.6961L3.96178 51.0399ZM4.35548 51.0402L3.96178 51.0399L3.96129 51.6961L4.35499 51.6964L4.35548 51.0402ZM6.87954 51.4192C5.74802 51.307 4.91534 51.183 4.44288 51.0521L4.26759 51.6845C4.80005 51.8321 5.68326 51.96 6.81478 52.0723L6.87954 51.4192ZM11.2045 51.721C9.50116 51.636 8.03626 51.5339 6.87954 51.4192L6.81478 52.0723C7.98588 52.1884 9.46227 52.2911 11.1718 52.3765L11.2045 51.721ZM23.72 51.9933C18.9696 51.9933 14.6112 51.8912 11.2045 51.721L11.1718 52.3765C14.5917 52.5473 18.9612 52.6495 23.72 52.6495V51.9933ZM36.052 51.7301C32.6729 51.8948 28.3855 51.9933 23.72 51.9933V52.6495C28.3938 52.6495 32.6921 52.5509 36.084 52.3856L36.052 51.7301ZM42.8946 51.079C41.8512 51.3388 39.4012 51.5668 36.052 51.7301L36.084 52.3856C39.4181 52.223 41.9357 51.9941 43.0532 51.7158L42.8946 51.079ZM43.4779 51.0696L42.9742 51.0693L42.9737 51.7255L43.4774 51.7259L43.4779 51.0696ZM43.8794 51.0699L43.4779 51.0696L43.4774 51.7259L43.8789 51.7262L43.8794 51.0699ZM43.8131 51.1067C43.8273 51.0838 43.8524 51.0699 43.8794 51.0699L43.8789 51.7262C44.0786 51.7263 44.2642 51.6234 44.3699 51.454L43.8131 51.1067ZM43.8092 51.1825C43.7973 51.1582 43.7988 51.1296 43.8131 51.1067L44.3699 51.454C44.4755 51.2846 44.4863 51.0726 44.3984 50.8934L43.8092 51.1825ZM43.6323 50.822L43.8092 51.1825L44.3984 50.8934L44.2215 50.5329L43.6323 50.822ZM39.6807 42.7694L43.6323 50.822L44.2215 50.5329L40.2699 42.4803L39.6807 42.7694ZM39.6121 42.6296L39.6807 42.7694L40.2699 42.4803L40.2012 42.3405L39.6121 42.6296ZM39.6822 42.6733C39.6524 42.6733 39.6252 42.6563 39.6121 42.6296L40.2012 42.3405C40.1041 42.1425 39.9028 42.017 39.6822 42.017V42.6733ZM39.5264 42.6733H39.6822V42.017H39.5264V42.6733ZM38.1018 42.6733H39.5264V42.017H38.1018V42.6733ZM39.8546 42.8451C39.8546 42.6337 39.7063 42.5041 39.6203 42.4441C39.5217 42.3753 39.3964 42.3209 39.2645 42.2753C38.9962 42.1824 38.6184 42.0985 38.1557 42.0215L38.0479 42.6688C38.5 42.7441 38.8345 42.8209 39.0499 42.8954C39.1597 42.9334 39.219 42.9643 39.2447 42.9822C39.2829 43.0089 39.1983 42.9673 39.1983 42.8451H39.8546ZM39.8896 42.8405L39.821 42.7006L39.2319 42.9897L39.3005 43.1296L39.8896 42.8405ZM39.3255 43.1589C39.3151 43.1515 39.3063 43.1415 39.3005 43.1296L39.8896 42.8404C39.8463 42.7521 39.7821 42.6781 39.7047 42.6233L39.3255 43.1589ZM38.1557 43.6688C38.5795 43.5983 38.9306 43.5221 39.1914 43.4392C39.3211 43.398 39.4397 43.3517 39.5371 43.2977C39.6241 43.2495 39.7439 43.169 39.8094 43.0363L39.2208 42.7459C39.2465 42.694 39.2742 42.6932 39.2193 42.7236C39.1749 42.7481 39.1018 42.7791 38.9926 42.8138C38.7756 42.8828 38.46 42.9529 38.0479 43.0215L38.1557 43.6688ZM3.84495 50.3629L3.66756 50.723L4.25627 51.013L4.43367 50.6528L3.84495 50.3629ZM4.42993 50.5771C4.44418 50.6 4.44559 50.6286 4.43367 50.6528L3.84495 50.3629C3.75673 50.542 3.76718 50.7539 3.8726 50.9235L4.42993 50.5771ZM4.36364 50.5402C4.39062 50.5402 4.41569 50.5541 4.42993 50.5771L3.8726 50.9235C3.97801 51.0931 4.16347 51.1963 4.36315 51.1964L4.36364 50.5402ZM3.96167 51.1961L4.36315 51.1964L4.36364 50.5402L3.96216 50.5399L3.96167 51.1961ZM43.7726 50.7532L43.5832 50.3673L42.9941 50.6564L43.1835 51.0423L43.7726 50.7532ZM42.9429 51.2255L43.4778 51.2259L43.4783 50.5696L42.9434 50.5692L42.9429 51.2255ZM42.9623 51.223C42.956 51.2247 42.9494 51.2255 42.9429 51.2255L42.9434 50.5692C42.8948 50.5692 42.8465 50.5753 42.7994 50.5873L42.9623 51.223ZM36.0596 51.8861C39.4381 51.7215 41.9191 51.4903 42.9623 51.223L42.7994 50.5873C41.8331 50.8349 39.4231 51.0652 36.0277 51.2307L36.0596 51.8861ZM23.72 52.1495C28.3875 52.1495 32.6775 52.051 36.0596 51.8861L36.0277 51.2307C32.6583 51.3949 28.3792 51.4933 23.72 51.4933V52.1495ZM11.1968 51.8771C14.6066 52.0474 18.9676 52.1495 23.72 52.1495V51.4933C18.9759 51.4933 14.6261 51.3913 11.2295 51.2217L11.1968 51.8771ZM6.86412 51.5747C8.02427 51.6897 9.4919 51.7919 11.1968 51.8771L11.2295 51.2217C9.53079 51.1368 8.07465 51.0353 6.92888 50.9216L6.86412 51.5747ZM4.36833 51.1934C4.84878 51.3317 5.70591 51.4598 6.86412 51.5747L6.92888 50.9216C5.76896 50.8066 4.96636 50.6827 4.54988 50.5628L4.36833 51.1934ZM4.38989 51.1964C4.38259 51.1964 4.37533 51.1954 4.36832 51.1934L4.54989 50.5628C4.49803 50.5478 4.44434 50.5402 4.39037 50.5402L4.38989 51.1964ZM4.38743 51.1964L4.38987 51.1964L4.39039 50.5402L4.38794 50.5402L4.38743 51.1964ZM4.36604 50.5433C4.3731 50.5412 4.38039 50.5402 4.38771 50.5402L4.38766 51.1964C4.44191 51.1964 4.4959 51.1888 4.54805 51.1738L4.36604 50.5433ZM6.86001 50.1617C5.70209 50.2766 4.84553 50.4048 4.36604 50.5433L4.54805 51.1738C4.96332 51.0539 5.7651 50.9299 6.92483 50.8147L6.86001 50.1617ZM11.1927 49.8591C9.48758 49.9443 8.01989 50.0466 6.86001 50.1617L6.92483 50.8147C8.07031 50.7011 9.52649 50.5994 11.2255 50.5145L11.1927 49.8591ZM23.72 49.5864C18.9657 49.5864 14.6031 49.6887 11.1927 49.8591L11.2255 50.5145C14.6227 50.3448 18.9741 50.2427 23.72 50.2427V49.5864ZM36.2688 49.8602C32.8553 49.6891 28.4843 49.5864 23.72 49.5864V50.2427C28.4759 50.2427 32.8357 50.3452 36.236 50.5156L36.2688 49.8602ZM40.602 50.1639C39.4436 50.0484 37.9756 49.9457 36.2688 49.8602L36.236 50.5156C37.9366 50.6008 39.3929 50.7028 40.5368 50.8169L40.602 50.1639ZM43.0861 50.5468C42.6119 50.4079 41.7584 50.2792 40.602 50.1639L40.5368 50.8169C41.6955 50.9325 42.4929 51.0569 42.9016 51.1766L43.0861 50.5468ZM43.0044 50.5715C43.0243 50.5478 43.0564 50.5381 43.0861 50.5468L42.9016 51.1766C43.1215 51.241 43.3588 51.1694 43.5064 50.9941L43.0044 50.5715ZM42.994 50.6561C42.9804 50.6283 42.9844 50.5951 43.0044 50.5715L43.5064 50.9941C43.6539 50.8189 43.6841 50.5732 43.5834 50.3676L42.994 50.6561Z" fill="#1C3261"/>
</svg>
