<svg width="60" height="60" viewBox="0 0 60 60" fill="none" xmlns="http://www.w3.org/2000/svg">
<path fill-rule="evenodd" clip-rule="evenodd" d="M30 60C46.5685 60 60 46.5685 60 30C60 13.4315 46.5685 0 30 0C13.4315 0 0 13.4315 0 30C0 46.5685 13.4315 60 30 60Z" fill="#F7FBFE"/>
<path fill-rule="evenodd" clip-rule="evenodd" d="M11.25 31.2341C11.25 27.4647 14.3057 24.4091 18.075 24.4091H31.425C35.1943 24.4091 38.25 27.4647 38.25 31.2341V51H11.25V31.2341Z" fill="#1C3260"/>
<path fill-rule="evenodd" clip-rule="evenodd" d="M11.25 31.2341C11.25 27.4647 14.3057 24.4091 18.075 24.4091H27.39C30.4055 24.4091 32.85 26.8536 32.85 29.8691V51H11.25V31.2341Z" fill="#2B869E"/>
<path fill-rule="evenodd" clip-rule="evenodd" d="M27.1129 38.0454C29.1632 38.0454 30.8254 36.3665 30.8254 34.2954C30.8254 32.2243 29.1632 30.5454 27.1129 30.5454C25.0625 30.5454 23.4004 32.2243 23.4004 34.2954C23.4004 36.3665 25.0625 38.0454 27.1129 38.0454Z" stroke="white" stroke-width="1.365"/>
<path d="M26.7758 32.5908C26.0302 32.5908 25.4258 33.2013 25.4258 33.9545" stroke="white" stroke-width="1.365" stroke-linecap="round" stroke-linejoin="round"/>
<path fill-rule="evenodd" clip-rule="evenodd" d="M34.5375 43.5C36.2151 43.5 37.575 42.1263 37.575 40.4318C37.575 38.7373 36.2151 37.3636 34.5375 37.3636C32.8599 37.3636 31.5 38.7373 31.5 40.4318C31.5 42.1263 32.8599 43.5 34.5375 43.5Z" stroke="white" stroke-width="1.092"/>
<path d="M34.2618 39.0372C33.6517 39.0372 33.1572 39.5367 33.1572 40.1529" stroke="white" stroke-width="1.092" stroke-linecap="round" stroke-linejoin="round"/>
<path fill-rule="evenodd" clip-rule="evenodd" d="M32.5788 26.1327C32.5839 26.0864 32.6515 26.0844 32.6565 26.1308C32.8492 27.9425 34.2861 29.3804 36.0959 29.5901C36.142 29.5955 36.1434 29.6626 36.0974 29.6677C34.2867 29.8709 32.8568 31.3193 32.6576 33.1304C32.6524 33.177 32.5843 33.1764 32.5791 33.1299C32.3802 31.3217 30.9522 29.8712 29.1444 29.6683C29.0983 29.6631 29.0983 29.5962 29.1444 29.591C30.9522 29.3881 32.3799 27.941 32.5788 26.1327Z" fill="white"/>
<path fill-rule="evenodd" clip-rule="evenodd" d="M13.2754 31.1591C13.2754 27.4311 16.2975 24.4091 20.0254 24.4091H21.3754C19.2409 26.1339 18.0004 28.7312 18.0004 31.4755V51H13.2754V31.1591Z" fill="white"/>
<path d="M18 18.9559C18 18.2021 18.6111 17.5909 19.365 17.5909H30.135C30.8889 17.5909 31.5 18.2021 31.5 18.9559V24.4091H18V18.9559Z" fill="#1C3260"/>
<path d="M18.3413 18.9559C18.3413 18.3905 18.7996 17.9322 19.365 17.9322H28.11C28.6754 17.9322 29.1337 18.3905 29.1337 18.9559V23.0441C29.1337 23.6095 28.6754 24.0679 28.11 24.0679H18.3413V18.9559Z" fill="white" stroke="#2B869E" stroke-width="0.6825"/>
<path d="M20.3629 17.9318V24.0681" stroke="#2B869E" stroke-width="0.6825" stroke-linecap="square"/>
<path d="M23.0621 17.9318V24.0681" stroke="#2B869E" stroke-width="0.6825" stroke-linecap="square"/>
<path d="M26.4371 17.9318V24.0681" stroke="#2B869E" stroke-width="0.6825" stroke-linecap="square"/>
<rect x="23.25" y="11.25" width="3" height="4.5" fill="#1C3260"/>
<path fill-rule="evenodd" clip-rule="evenodd" d="M20.25 9H28.0074C30.7239 9 33.3291 10.0791 35.25 12V12.75C33.2771 11.7636 31.1017 11.25 28.8959 11.25H20.25V9Z" fill="#2B869E"/>
<path d="M20.0254 15.615C20.0254 14.8611 20.6365 14.25 21.3904 14.25H28.1104C28.8643 14.25 29.4754 14.8611 29.4754 15.615V17.5909H20.0254V15.615Z" fill="#2B869E"/>
<path fill-rule="evenodd" clip-rule="evenodd" d="M21 43.5L21.75 42H48.75L49.5 43.5L48 51H22.5L21 43.5Z" fill="#1C3260" stroke="#1C3261" stroke-width="0.75" stroke-linejoin="round"/>
<path fill-rule="evenodd" clip-rule="evenodd" d="M35.25 49.5C40.6348 49.5 45 48.3247 45 46.875C45 45.4253 40.6348 44.25 35.25 44.25C29.8652 44.25 25.5 45.4253 25.5 46.875C25.5 48.3247 29.8652 49.5 35.25 49.5Z" fill="white"/>
<path fill-rule="evenodd" clip-rule="evenodd" d="M21 43.5H27.75C28.1861 45.6805 30.1006 47.25 32.3243 47.25H38.1757C40.3994 47.25 42.3139 45.6805 42.75 43.5V43.5H49.5L48 51H22.5L21 43.5Z" fill="#FEC3BF" stroke="#1C3261" stroke-width="0.75" stroke-linejoin="round"/>
</svg>
