<svg width="60" height="60" viewBox="0 0 60 60" fill="none" xmlns="http://www.w3.org/2000/svg">
<path fill-rule="evenodd" clip-rule="evenodd" d="M30 60C46.5685 60 60 46.5685 60 30C60 13.4315 46.5685 0 30 0C13.4315 0 0 13.4315 0 30C0 46.5685 13.4315 60 30 60Z" fill="#F7FBFE"/>
<path d="M22.5 18.75C22.5 18.3358 22.8358 18 23.25 18H51.75C52.1642 18 52.5 18.3358 52.5 18.75V46.5C52.5 47.3284 51.8284 48 51 48H24C23.1716 48 22.5 47.3284 22.5 46.5V18.75Z" fill="#1C3260"/>
<path d="M22.5 18.75C22.5 18.3358 22.8358 18 23.25 18H45C45.4142 18 45.75 18.3358 45.75 18.75V46.5C45.75 47.3284 45.0784 48 44.25 48H24C23.1716 48 22.5 47.3284 22.5 46.5V18.75Z" fill="#2B869E"/>
<path d="M40.0535 27.9251C39.7391 27.6042 39.3212 27.4276 38.8765 27.4276C38.7953 27.4276 38.7148 27.4335 38.6355 27.4452C38.7114 26.9216 38.5439 26.3845 38.1648 25.9976C37.8503 25.6767 37.4323 25.5 36.9876 25.5C36.5429 25.5 36.1248 25.6767 35.8104 25.9976C35.5157 26.2983 35.3431 26.6978 35.3245 27.1225C35.3091 27.4749 35.4004 27.8198 35.5841 28.1129L31.9016 31.8709C31.6171 31.6566 31.2737 31.5405 30.9147 31.5405C30.47 31.5405 30.052 31.7172 29.7376 32.0381C29.4232 32.3589 29.25 32.7856 29.25 33.2394C29.25 33.6932 29.4232 34.1198 29.7376 34.4407C30.052 34.7615 30.47 34.9382 30.9146 34.9382C30.9959 34.9382 31.0763 34.9323 31.1556 34.9205C31.0797 35.4442 31.2472 35.9812 31.6264 36.3681C31.9408 36.689 32.3588 36.8657 32.8035 36.8657C33.2482 36.8657 33.6663 36.689 33.9807 36.3681C34.2909 36.0516 34.464 35.6307 34.4682 35.1832C34.4716 34.8107 34.3579 34.4546 34.1445 34.1598L37.8036 30.4257C38.1034 30.6843 38.4793 30.8252 38.8764 30.8252C39.321 30.8252 39.7391 30.6485 40.0535 30.3277C40.7026 29.6652 40.7026 28.5875 40.0535 27.9251Z" fill="white"/>
<path d="M22.5 12C22.5 11.1716 23.1716 10.5 24 10.5H51C51.8284 10.5 52.5 11.1716 52.5 12V17.25C52.5 17.6642 52.1642 18 51.75 18H23.25C22.8358 18 22.5 17.6642 22.5 17.25V12Z" fill="#1C3260"/>
<path d="M22.875 12C22.875 11.3787 23.3787 10.875 24 10.875H44.25C44.8713 10.875 45.375 11.3787 45.375 12V17.25C45.375 17.4571 45.2071 17.625 45 17.625H23.25C23.0429 17.625 22.875 17.4571 22.875 17.25V12Z" fill="white" stroke="#2B869E" stroke-width="0.75"/>
<path d="M26.625 10.875V17.625" stroke="#2B869E" stroke-width="0.75" stroke-linecap="square"/>
<path d="M34.125 10.875V17.625" stroke="#2B869E" stroke-width="0.75" stroke-linecap="square"/>
<path d="M30.375 10.875V17.625" stroke="#2B869E" stroke-width="0.75" stroke-linecap="square"/>
<path d="M37.875 10.875V17.625" stroke="#2B869E" stroke-width="0.75" stroke-linecap="square"/>
<path d="M41.625 10.875V17.625" stroke="#2B869E" stroke-width="0.75" stroke-linecap="square"/>
<path d="M34.5921 34.1381C35.071 33.8721 35.4737 33.4774 35.7537 32.9924C36.5786 31.5636 36.1245 29.7513 34.7414 28.9528C34.2721 28.6819 33.7384 28.5543 33.199 28.579C32.9509 28.0996 32.5735 27.7012 32.1041 27.4302C31.6349 27.1593 31.1011 27.0317 30.5619 27.0565C30.3136 26.577 29.9362 26.1786 29.467 25.9076C28.9976 25.6366 28.464 25.5091 27.9246 25.5338C27.6763 25.0544 27.2991 24.656 26.8298 24.3851C25.4466 23.5865 23.6501 24.0993 22.8252 25.5282C22.5452 26.0131 22.4048 26.5593 22.4139 27.1071C21.935 27.3731 21.5321 27.7677 21.2521 28.2527C20.9723 28.7375 20.8318 29.2838 20.841 29.8315C20.362 30.0975 19.9591 30.4923 19.6792 30.9771C19.3992 31.462 19.2587 32.0081 19.2678 32.5559C18.7889 32.8219 18.3862 33.2167 18.1062 33.7016C17.8263 34.1864 17.6857 34.7327 17.6949 35.2803C17.216 35.5463 16.8133 35.941 16.5333 36.426C16.2534 36.9108 16.1128 37.457 16.1219 38.0048C15.643 38.2708 15.2403 38.6656 14.9604 39.1504C14.1353 40.5793 14.5895 42.3916 15.9726 43.1901C16.442 43.4611 16.9756 43.5885 17.515 43.5638C17.7632 44.0434 18.1406 44.4418 18.6098 44.7128C19.0791 44.9837 19.6128 45.1112 20.1522 45.0866C20.4004 45.5659 20.7777 45.9644 21.247 46.2353C21.7164 46.5063 22.2501 46.6339 22.7894 46.6091C23.0377 47.0886 23.415 47.487 23.8843 47.7579C25.2673 48.5565 27.0639 48.0436 27.8888 46.6148C28.1688 46.1299 28.3093 45.5837 28.3002 45.036C28.7791 44.7699 29.1818 44.3752 29.4618 43.8903C29.7417 43.4055 29.8823 42.8592 29.8731 42.3116C30.352 42.0456 30.7548 41.6507 31.0347 41.1659C31.3147 40.6809 31.4552 40.1348 31.4461 39.587C31.925 39.3212 32.3278 38.9263 32.6077 38.4415C32.8876 37.9566 33.0281 37.4104 33.0191 36.8627C33.498 36.5967 33.9007 36.2019 34.1807 35.717C34.4606 35.232 34.6012 34.6859 34.5921 34.1381Z" fill="white" stroke="#1C3260" stroke-width="2.4"/>
<path d="M24.0632 31.5271C24.3706 31.0171 24.5357 30.4274 24.5357 29.8196C24.5357 28.0286 23.1182 26.5714 21.3759 26.5714C20.7848 26.5714 20.211 26.7412 19.7149 27.0571C19.2189 26.7412 18.6451 26.5714 18.0538 26.5714C17.4627 26.5714 16.8889 26.7412 16.3929 27.0571C15.8968 26.7412 15.323 26.5714 14.7319 26.5714C14.1406 26.5714 13.567 26.7412 13.0708 27.0571C12.5747 26.7412 12.0011 26.5714 11.4099 26.5714C9.66754 26.5714 8.25 28.0286 8.25 29.8196C8.25 30.4274 8.41532 31.0171 8.72269 31.5271C8.41532 32.0372 8.25 32.6268 8.25 33.2347C8.25 33.8423 8.41532 34.4322 8.72269 34.942C8.41532 35.4521 8.25 36.0419 8.25 36.6496C8.25 37.2574 8.41514 37.8471 8.72251 38.3571C8.41514 38.8671 8.25 39.4568 8.25 40.0647C8.25 40.6723 8.41514 41.2622 8.72251 41.772C8.41514 42.282 8.25 42.8717 8.25 43.4796C8.25 44.0872 8.41514 44.6771 8.72251 45.1871C8.41514 45.6971 8.25 46.2868 8.25 46.8945C8.25 48.6856 9.66754 50.1428 11.4098 50.1428C12.0011 50.1428 12.5747 49.9729 13.0708 49.6569C13.567 49.9731 14.1408 50.1428 14.7319 50.1428C15.323 50.1428 15.8968 49.9731 16.3929 49.6571C16.8889 49.9731 17.4627 50.1428 18.0538 50.1428C18.6451 50.1428 19.2189 49.9731 19.7149 49.6571C20.211 49.9731 20.7848 50.1428 21.3759 50.1428C23.1182 50.1428 24.5357 48.6856 24.5357 46.8946C24.5357 46.2868 24.3706 45.6971 24.0632 45.1871C24.3706 44.6771 24.5357 44.0874 24.5357 43.4796C24.5357 42.8719 24.3706 42.282 24.0632 41.7722C24.3706 41.2622 24.5357 40.6723 24.5357 40.0647C24.5357 39.4568 24.3706 38.8671 24.0632 38.3571C24.3706 37.8473 24.5357 37.2574 24.5357 36.6498C24.5357 36.0419 24.3706 35.4522 24.0632 34.9422C24.3706 34.4322 24.5357 33.8425 24.5357 33.2347C24.5357 32.6268 24.3706 32.0372 24.0632 31.5271Z" fill="#1C3260"/>
<path d="M25.5632 31.5271C25.8706 31.0171 26.0357 30.4274 26.0357 29.8196C26.0357 28.0286 24.6182 26.5714 22.8759 26.5714C22.2848 26.5714 21.711 26.7412 21.2149 27.0571C20.7189 26.7412 20.1451 26.5714 19.5538 26.5714C18.9627 26.5714 18.3889 26.7412 17.8929 27.0571C17.3968 26.7412 16.823 26.5714 16.2319 26.5714C15.6406 26.5714 15.067 26.7412 14.5708 27.0571C14.0747 26.7412 13.5011 26.5714 12.9099 26.5714C11.1675 26.5714 9.75 28.0286 9.75 29.8196C9.75 30.4274 9.91532 31.0171 10.2227 31.5271C9.91532 32.0372 9.75 32.6268 9.75 33.2347C9.75 33.8423 9.91532 34.4322 10.2227 34.942C9.91532 35.4521 9.75 36.0419 9.75 36.6496C9.75 37.2574 9.91514 37.8471 10.2225 38.3571C9.91514 38.8671 9.75 39.4568 9.75 40.0647C9.75 40.6723 9.91514 41.2622 10.2225 41.772C9.91514 42.282 9.75 42.8717 9.75 43.4796C9.75 44.0872 9.91514 44.6771 10.2225 45.1871C9.91514 45.6971 9.75 46.2868 9.75 46.8945C9.75 48.6856 11.1675 50.1428 12.9098 50.1428C13.5011 50.1428 14.0747 49.9729 14.5708 49.6569C15.067 49.9731 15.6408 50.1428 16.2319 50.1428C16.823 50.1428 17.3968 49.9731 17.8929 49.6571C18.3889 49.9731 18.9627 50.1428 19.5538 50.1428C20.1451 50.1428 20.7189 49.9731 21.2149 49.6571C21.711 49.9731 22.2848 50.1428 22.8759 50.1428C24.6182 50.1428 26.0357 48.6856 26.0357 46.8946C26.0357 46.2868 25.8706 45.6971 25.5632 45.1871C25.8706 44.6771 26.0357 44.0874 26.0357 43.4796C26.0357 42.8719 25.8706 42.282 25.5632 41.7722C25.8706 41.2622 26.0357 40.6723 26.0357 40.0647C26.0357 39.4568 25.8706 38.8671 25.5632 38.3571C25.8706 37.8473 26.0357 37.2574 26.0357 36.6498C26.0357 36.0419 25.8706 35.4522 25.5632 34.9422C25.8706 34.4322 26.0357 33.8425 26.0357 33.2347C26.0357 32.6268 25.8706 32.0372 25.5632 31.5271Z" fill="#FEC3BF"/>
<path fill-rule="evenodd" clip-rule="evenodd" d="M15.8573 33.3571C16.232 33.3571 16.5359 33.0533 16.5359 32.6786C16.5359 32.3038 16.232 32 15.8573 32C15.4825 32 15.1787 32.3038 15.1787 32.6786C15.1787 33.0533 15.4825 33.3571 15.8573 33.3571Z" fill="#EBFBFF"/>
<path fill-rule="evenodd" clip-rule="evenodd" d="M19.9286 33.3571C20.3033 33.3571 20.6071 33.0533 20.6071 32.6786C20.6071 32.3038 20.3033 32 19.9286 32C19.5538 32 19.25 32.3038 19.25 32.6786C19.25 33.0533 19.5538 33.3571 19.9286 33.3571Z" fill="#EBFBFF"/>
<path fill-rule="evenodd" clip-rule="evenodd" d="M15.8573 37.4286C16.232 37.4286 16.5359 37.1247 16.5359 36.75C16.5359 36.3752 16.232 36.0714 15.8573 36.0714C15.4825 36.0714 15.1787 36.3752 15.1787 36.75C15.1787 37.1247 15.4825 37.4286 15.8573 37.4286Z" fill="#EBFBFF"/>
<path fill-rule="evenodd" clip-rule="evenodd" d="M19.9286 37.4286C20.3033 37.4286 20.6071 37.1247 20.6071 36.75C20.6071 36.3752 20.3033 36.0714 19.9286 36.0714C19.5538 36.0714 19.25 36.3752 19.25 36.75C19.25 37.1247 19.5538 37.4286 19.9286 37.4286Z" fill="#EBFBFF"/>
<path fill-rule="evenodd" clip-rule="evenodd" d="M15.8573 41.5C16.232 41.5 16.5359 41.1962 16.5359 40.8214C16.5359 40.4466 16.232 40.1428 15.8573 40.1428C15.4825 40.1428 15.1787 40.4466 15.1787 40.8214C15.1787 41.1962 15.4825 41.5 15.8573 41.5Z" fill="#EBFBFF"/>
<path fill-rule="evenodd" clip-rule="evenodd" d="M19.9286 41.5C20.3033 41.5 20.6071 41.1962 20.6071 40.8214C20.6071 40.4466 20.3033 40.1428 19.9286 40.1428C19.5538 40.1428 19.25 40.4466 19.25 40.8214C19.25 41.1962 19.5538 41.5 19.9286 41.5Z" fill="#EBFBFF"/>
<path fill-rule="evenodd" clip-rule="evenodd" d="M15.8573 45.5714C16.232 45.5714 16.5359 45.2676 16.5359 44.8928C16.5359 44.518 16.232 44.2142 15.8573 44.2142C15.4825 44.2142 15.1787 44.518 15.1787 44.8928C15.1787 45.2676 15.4825 45.5714 15.8573 45.5714Z" fill="#EBFBFF"/>
<path fill-rule="evenodd" clip-rule="evenodd" d="M19.9286 45.5714C20.3033 45.5714 20.6071 45.2676 20.6071 44.8928C20.6071 44.518 20.3033 44.2142 19.9286 44.2142C19.5538 44.2142 19.25 44.518 19.25 44.8928C19.25 45.2676 19.5538 45.5714 19.9286 45.5714Z" fill="#EBFBFF"/>
</svg>
