<svg width="60" height="60" viewBox="0 0 60 60" fill="none" xmlns="http://www.w3.org/2000/svg">
<path fill-rule="evenodd" clip-rule="evenodd" d="M30 60C46.5685 60 60 46.5685 60 30C60 13.4315 46.5685 0 30 0C13.4315 0 0 13.4315 0 30C0 46.5685 13.4315 60 30 60Z" fill="#F7FBFE"/>
<path d="M26.0924 12.9025L37.3424 37.7775C38.7079 40.7968 37.3672 44.3514 34.3479 45.7169C31.3287 47.0824 27.7741 45.7418 26.4086 42.7225L15.1586 17.8475C13.7931 14.8282 15.1337 11.2736 18.153 9.90812C21.1723 8.54261 24.7269 9.88326 26.0924 12.9025Z" fill="#FEC3BF"/>
<rect x="33" y="18" width="7.5" height="30" fill="#1C3260"/>
<path fill-rule="evenodd" clip-rule="evenodd" d="M33 18H40.5L42.75 25.5H35.25L33 18Z" fill="#2B869E"/>
<rect x="10.5" y="18" width="22.5" height="30" fill="#2B869E"/>
<path fill-rule="evenodd" clip-rule="evenodd" d="M10.5 18H33L30 25.5H7.5L10.5 18Z" fill="#1C3260"/>
<path d="M36.6327 39.9674C37.1396 41.9412 35.9566 43.9925 33.9954 44.54C33.0455 44.8051 32.0567 44.6821 31.2113 44.1935C30.4564 43.7572 29.8964 43.076 29.6103 42.2543L18.5551 45.3403C18.6372 46.1358 18.4625 46.9387 18.0471 47.6437C17.5479 48.4909 16.7568 49.1016 15.8196 49.3632C14.8696 49.6284 13.8808 49.5053 13.0355 49.0167C12.19 48.5281 11.5892 47.7325 11.3436 46.7763C11.0475 45.6233 11.3185 44.4172 12.0377 43.504C11.8739 43.4392 11.7145 43.362 11.5601 43.2728C10.7147 42.7842 10.114 41.9887 9.86843 41.0326C9.62289 40.0765 9.7619 39.0742 10.26 38.2106C10.7581 37.3469 11.5557 36.7253 12.5056 36.4601C13.4555 36.1949 14.4442 36.3179 15.2896 36.8065C15.9721 37.201 16.4977 37.7992 16.8032 38.5198L27.9293 35.4139C27.9018 34.6543 28.1067 33.8976 28.523 33.2437C29.0245 32.456 29.791 31.8853 30.6815 31.6367C31.6314 31.3716 32.6202 31.4946 33.4656 31.9832C34.3111 32.4719 34.9119 33.2676 35.1575 34.2237C35.4536 35.3767 35.1825 36.5828 34.4634 37.496C34.6272 37.5608 34.7866 37.638 34.941 37.7272C35.7864 38.2158 36.3871 39.0114 36.6327 39.9674Z" fill="#FDFDFE" stroke="#1C3260" stroke-width="0.75"/>
<path d="M18.375 40.75L17.625 43.25" stroke="#2B869E" stroke-width="1.5" stroke-linecap="round" stroke-linejoin="round"/>
<path d="M22.125 39.25L21.375 41.75" stroke="#2B869E" stroke-width="1.5" stroke-linecap="round" stroke-linejoin="round"/>
<path d="M25.875 38.5L25.125 41" stroke="#2B869E" stroke-width="1.5" stroke-linecap="round" stroke-linejoin="round"/>
<path d="M29.625 37L28.875 39.5" stroke="#2B869E" stroke-width="1.5" stroke-linecap="round" stroke-linejoin="round"/>
<path fill-rule="evenodd" clip-rule="evenodd" d="M43.7733 49.1678C48.9746 47.7741 52.0613 42.4278 50.6676 37.2265C49.274 32.0252 43.9277 28.9385 38.7264 30.3322C33.5251 31.7259 30.4384 37.0722 31.8321 42.2735C33.2258 47.4748 38.572 50.5615 43.7733 49.1678Z" fill="#FEC3BF"/>
<mask id="mask0" mask-type="alpha" maskUnits="userSpaceOnUse" x="29" y="27" width="25" height="25">
<path fill-rule="evenodd" clip-rule="evenodd" d="M43.7733 49.1678C48.9746 47.7741 52.0613 42.4278 50.6676 37.2265C49.274 32.0252 43.9277 28.9385 38.7264 30.3322C33.5251 31.7259 30.4384 37.0722 31.8321 42.2735C33.2258 47.4748 38.572 50.5615 43.7733 49.1678Z" fill="white"/>
</mask>
<g mask="url(#mask0)">
<path fill-rule="evenodd" clip-rule="evenodd" d="M57.0692 45.6053C62.2705 44.2116 65.3572 38.8653 63.9635 33.664C62.5698 28.4627 57.2236 25.376 52.0223 26.7697C46.821 28.1634 43.7343 33.5097 45.128 38.711C46.5217 43.9123 51.8679 46.999 57.0692 45.6053Z" stroke="#1C3260" stroke-width="2.4375"/>
<path fill-rule="evenodd" clip-rule="evenodd" d="M30.4774 52.7303C35.6787 51.3366 38.7654 45.9903 37.3717 40.789C35.9781 35.5877 30.6318 32.501 25.4305 33.8947C20.2292 35.2884 17.1425 40.6347 18.5362 45.836C19.9299 51.0373 25.2761 54.124 30.4774 52.7303Z" stroke="#1C3260" stroke-width="2.4375"/>
</g>
</svg>
