<svg width="18" height="15" viewBox="0 0 18 15" fill="none" xmlns="http://www.w3.org/2000/svg">
<path fill-rule="evenodd" clip-rule="evenodd" d="M0.0234514 5.0492L1.67128 1.42576C1.70483 1.35202 1.77096 1.29952 1.84877 1.28481L8.64845 0L6.65726 4.61477C6.62161 4.69743 6.54561 4.75405 6.45816 4.76315L0.269752 5.4064C0.0807122 5.42606 -0.0570663 5.22626 0.0234514 5.0492ZM8.67202 11.2169V3.84078C8.67202 3.565 8.30301 3.48989 8.20094 3.74493L7.40987 5.72132C7.37504 5.80824 7.29603 5.86803 7.20496 5.87625L1.95391 6.35091C1.82512 6.36255 1.72732 6.47525 1.73067 6.60824L1.83746 10.8485C1.84042 10.9651 1.92082 11.0643 2.03176 11.0883L8.21354 12.426C8.39868 12.466 8.58758 12.4813 8.77558 12.4717C8.64845 11.7598 8.67202 11.2169 8.67202 11.2169ZM8.64848 0L10.7554 4.75902C10.7922 4.84221 10.87 4.8983 10.9586 4.90565L17.1353 5.41664C17.3214 5.43202 17.4551 5.23594 17.3776 5.06116L15.7667 1.42819C15.7334 1.35305 15.6664 1.29952 15.5874 1.28487L8.64848 0ZM13.8 15C11.4804 15 9.6 13.0384 9.6 10.6186C9.6 8.19886 11.4804 6.23726 13.8 6.23726C16.1196 6.23726 18 8.19886 18 10.6186C18 13.0384 16.1196 15 13.8 15ZM15.5703 8.84829C15.336 8.61397 14.9561 8.61397 14.7218 8.84829L13.8183 9.75178L12.9698 8.90325C12.7355 8.66893 12.3556 8.66893 12.1213 8.90325L12.0846 8.93989C11.8503 9.17421 11.8503 9.55411 12.0846 9.78842L12.9331 10.6369L12.0297 11.5404C11.7953 11.7748 11.7953 12.1547 12.0297 12.389C12.264 12.6233 12.6439 12.6233 12.8782 12.389L13.7817 11.4855L14.6302 12.334C14.8645 12.5683 15.2444 12.5683 15.4787 12.334L15.5154 12.2974C15.7497 12.063 15.7497 11.6831 15.5154 11.4488L14.6668 10.6003L15.5703 9.69681C15.8047 9.4625 15.8047 9.0826 15.5703 8.84829Z" fill="#6E7A94"/>
</svg>
