<svg width="21" height="16" viewBox="0 0 21 16" fill="none" xmlns="http://www.w3.org/2000/svg">
<path fill-rule="evenodd" clip-rule="evenodd" d="M11.0006 0.285767H5.04469C2.98887 0.285767 1.32227 1.92032 1.32227 3.93661V8.31762C1.32227 10.081 2.60333 11.5556 4.30021 11.895V14.1589C4.30021 14.8093 5.10212 15.1351 5.57114 14.6751L8.3309 11.9685H11.0006C13.0564 11.9685 14.723 10.3339 14.723 8.31762V3.93661C14.723 1.92032 13.0564 0.285767 11.0006 0.285767ZM10.7824 4.45284L7.8045 7.37351C7.5138 7.65862 7.04244 7.65862 6.75175 7.37351L5.26278 5.91317C4.97198 5.62797 4.97198 5.16587 5.26278 4.88067C5.55357 4.59546 6.02473 4.59546 6.31553 4.88067L7.27815 5.82477L9.72974 3.42033C10.0205 3.13513 10.4917 3.13513 10.7825 3.42033C11.0733 3.70553 11.0733 4.16763 10.7824 4.45284ZM15.6892 1.7461H16.9565C19.0123 1.7461 20.6789 3.38066 20.6789 5.39694V8.31762C20.6789 10.081 19.3978 11.5556 17.7009 11.895V14.1589C17.7009 14.8093 16.899 15.1351 16.43 14.6751L14.107 12.3968C15.377 11.4637 16.212 9.9899 16.212 8.31762V3.93661C16.212 3.14973 16.0146 2.41265 15.6892 1.7461Z" fill="#6E7A94"/>
</svg>
