<svg width="16" height="16" viewBox="0 0 16 16" fill="none" xmlns="http://www.w3.org/2000/svg">
<path fill-rule="evenodd" clip-rule="evenodd" d="M0.0133889 6.58388L0.554528 1.71363C0.622293 1.10374 1.10374 0.622293 1.71363 0.554528L6.58388 0.0133889C7.2441 -0.0599685 7.90187 0.170763 8.37158 0.64048L15.3595 7.62843C16.2135 8.48239 16.2135 9.86692 15.3595 10.7209L10.7209 15.3595C9.86692 16.2135 8.48239 16.2135 7.62843 15.3595L0.64048 8.37158C0.170763 7.90187 -0.0599685 7.2441 0.0133889 6.58388ZM4.19679 4.19679C4.62376 3.76981 4.62376 3.07754 4.19679 2.65057C3.76981 2.22359 3.07754 2.22359 2.65057 2.65057C2.22359 3.07754 2.22359 3.76981 2.65057 4.19679C3.07754 4.62376 3.76981 4.62376 4.19679 4.19679ZM6.69285 9.31242C7.21052 8.79474 7.37195 8.04328 6.65388 7.32522C5.94695 6.61828 5.20662 6.81311 4.70008 7.31965C4.21023 7.80949 4.03211 8.58879 4.73904 9.29572C5.46267 10.0194 6.19187 9.81339 6.69285 9.31242ZM8.4409 10.7151C8.49657 10.9712 8.64686 11.0547 8.89178 10.999C9.1367 10.9434 9.23133 10.8042 9.17567 10.5482L7.96776 5.34358C7.90653 5.08196 7.7618 5.00403 7.51688 5.05969C7.27196 5.11536 7.17177 5.24895 7.22743 5.51614L8.4409 10.7151ZM6.28093 8.90051C6.11951 9.06193 5.88015 8.9673 5.46267 8.54982C5.07302 8.16017 4.93387 7.87629 5.09529 7.71486C5.26785 7.5423 5.5573 7.6759 5.94695 8.06555C6.3366 8.45519 6.45349 8.72795 6.28093 8.90051ZM11.6808 8.73351C12.1984 8.21584 12.3599 7.46438 11.6418 6.74631C10.9349 6.03938 10.1945 6.2342 9.68799 6.74074C9.19814 7.23059 9.02002 8.00988 9.72695 8.71681C10.4506 9.44045 11.1798 9.23449 11.6808 8.73351ZM11.2688 8.3216C11.1074 8.48303 10.8681 8.3884 10.4506 7.97092C10.0609 7.58127 9.92178 7.29738 10.0832 7.13596C10.2558 6.9634 10.5452 7.09699 10.9349 7.48664C11.3245 7.87629 11.4414 8.14904 11.2688 8.3216Z" fill="#6E7A94"/>
</svg>
