<svg width="21" height="15" viewBox="0 0 21 15" fill="none" xmlns="http://www.w3.org/2000/svg">
<path fill-rule="evenodd" clip-rule="evenodd" d="M3.02971 0.15625H13.9388V1.9375H16.363L19.3933 6.09375V9.65625H18.1812C18.1812 10.9679 17.0959 12.0312 15.757 12.0312C14.4181 12.0312 13.3327 10.9679 13.3327 9.65625H9.69638C9.69638 10.9679 8.61101 12.0312 7.27214 12.0312C5.93326 12.0312 4.84789 10.9679 4.84789 9.65625H3.02971V7.875H1.19922C0.8713 7.875 0.605469 7.60917 0.605469 7.28125C0.605469 6.95333 0.8713 6.6875 1.19922 6.6875H1.80528H3.02971H3.04202C3.36994 6.6875 3.63577 6.42167 3.63577 6.09375C3.63577 5.76583 3.36994 5.5 3.04202 5.5H3.02971H3.0174C2.68948 5.5 2.42365 5.23417 2.42365 4.90625C2.42365 4.57833 2.68948 4.3125 3.0174 4.3125H3.02971H3.64808C3.976 4.3125 4.24183 4.04667 4.24183 3.71875C4.24183 3.39083 3.976 3.125 3.64808 3.125H3.02971H2.41134C2.08342 3.125 1.81759 2.85917 1.81759 2.53125C1.81759 2.20333 2.08342 1.9375 2.41134 1.9375H3.02971V0.15625ZM6.06001 9.65625C6.06001 10.3121 6.6027 10.8438 7.27214 10.8438C7.94157 10.8438 8.48426 10.3121 8.48426 9.65625H6.06001ZM16.9691 9.65625H14.5449C14.5449 10.3121 15.0875 10.8438 15.757 10.8438C16.4264 10.8438 16.9691 10.3121 16.9691 9.65625ZM13.9388 6.09375V3.125H15.757L17.8701 6.09375H13.9388ZM0.605469 4.90625C0.605469 4.57833 0.8713 4.3125 1.19922 4.3125H1.22384C1.55176 4.3125 1.81759 4.57833 1.81759 4.90625C1.81759 5.23417 1.55176 5.5 1.22384 5.5H1.19922C0.8713 5.5 0.605469 5.23417 0.605469 4.90625ZM4.9085 3.56437L5.80547 3.57031C5.78123 3.49312 5.7691 3.41 5.7691 3.33281C5.7691 3.01219 5.95092 2.76281 6.32062 2.76281C6.67214 2.76281 6.84789 2.97656 6.84789 3.22C6.84789 3.47531 6.72668 3.63562 6.41759 3.81375L5.77517 4.18188C5.05395 4.59156 4.84789 5.17344 4.84789 5.88H7.83577V5.09625H6.01759C6.07213 4.98344 6.1691 4.90625 6.28426 4.835L7.02971 4.40156C7.53274 4.11063 7.80547 3.70094 7.80547 3.20219C7.80547 2.51344 7.24789 1.9375 6.34486 1.9375C5.39941 1.9375 4.87214 2.555 4.87214 3.24375C4.87214 3.3625 4.89032 3.51688 4.9085 3.56437ZM8.79335 4.12844V5.07844H10.6115V5.88H11.5691V5.07844H12.1994V4.29469H11.5691V2.02656H10.4297L8.79335 4.12844ZM10.6115 4.29469V3.02406L9.62365 4.29469H10.6115Z" fill="#6E7A94"/>
</svg>
