<svg width="15" height="19" viewBox="0 0 15 19" fill="none" xmlns="http://www.w3.org/2000/svg">
<path fill-rule="evenodd" clip-rule="evenodd" d="M4.67635 9.02474L12.9297 4.22325C13.464 3.91242 14.1472 4.09688 14.4556 4.63525C14.7641 5.17362 14.581 5.86203 14.0467 6.17285L10.1771 8.42407C10.7114 8.11324 11.3946 8.2977 11.7031 8.83607C12.0115 9.37443 11.8285 10.0628 11.2942 10.3737L10.8105 10.6551C11.3448 10.3442 12.028 10.5287 12.3364 11.0671C12.6449 11.6054 12.4618 12.2939 11.9275 12.6047L11.4438 12.8861C11.9781 12.5753 12.6613 12.7597 12.9698 13.2981C13.2783 13.8364 13.0952 14.5249 12.5609 14.8357L7.72387 17.6497C6.6553 18.2714 4.32152 18.4652 3.70458 17.3885L1.47045 13.4893C1.20052 13.0182 1.78577 12.1016 1.86871 11.604C2.15661 10.3619 2.00799 8.63874 1.78843 8.25555L0.721666 6.39373C0.482463 5.97625 0.624417 5.44242 1.03873 5.20139C1.14607 5.13894 1.26547 5.10043 1.38885 5.08847C2.2054 5.00927 2.99263 5.41784 3.40279 6.13369L3.98574 7.15111L4.67635 9.02474ZM2.7318 1.05784C2.99894 0.902431 3.34053 0.99466 3.49477 1.26384L4.61184 3.21345C4.76607 3.48264 4.67454 3.82684 4.4074 3.98225C4.14026 4.13767 3.79866 4.04544 3.64443 3.77625L2.52736 1.82665C2.37313 1.55746 2.46466 1.21326 2.7318 1.05784ZM7.46403 0.175567C7.76199 0.256015 7.93881 0.56462 7.85897 0.864857L7.28074 3.03936C7.2009 3.3396 6.89464 3.51777 6.59668 3.43732C6.29872 3.35687 6.1219 3.04827 6.20174 2.74803L6.77997 0.573528C6.85981 0.273292 7.16607 0.0951187 7.46403 0.175567ZM11.1245 3.32385C11.2787 3.59303 11.1872 3.93724 10.92 4.09265L8.98522 5.21826C8.71808 5.37367 8.37649 5.28144 8.22225 5.01225C8.06802 4.74307 8.15955 4.39887 8.42669 4.24345L10.3615 3.11785C10.6286 2.96243 10.9702 3.05466 11.1245 3.32385Z" fill="#6E7A94"/>
</svg>
