<svg width="22" height="22" viewBox="0 0 22 22" fill="none" class="cart-icon" xmlns="http://www.w3.org/2000/svg">
<path d="M20.7659 5.88465L5.4696 4.47697C5.38569 4.46723 5.30672 4.46723 5.22774 4.4721L4.61569 1.54957C4.60089 1.49112 4.58608 1.43267 4.5614 1.38396C4.46762 1.15016 4.27018 0.960192 4.00858 0.882258L1.09147 0.0347244C0.642302 -0.0967894 0.168457 0.156496 0.0351878 0.604617C-0.0980812 1.04787 0.158585 1.51547 0.612687 1.64699L3.04608 2.35326L5.97306 16.2742C6.02736 16.6834 6.38274 17 6.8171 17L19.4036 16.9951C19.8725 16.9951 20.2526 16.6201 20.2526 16.1573C20.2526 15.6946 19.8725 15.3195 19.4036 15.3195L7.51306 15.3244L7.10832 13.4004H19.6257C20.2822 13.4004 20.8498 12.9718 20.9683 12.3824L21.9802 7.35079C22.1134 6.6299 21.5606 5.95772 20.7659 5.88465Z" fill="#1C3261"/>
<path d="M10 22C11.1046 22 12 21.1046 12 20C12 18.8954 11.1046 18 10 18C8.89543 18 8 18.8954 8 20C8 21.1046 8.89543 22 10 22Z" fill="#1C3261"/>
<path d="M17 22C18.1046 22 19 21.1046 19 20C19 18.8954 18.1046 18 17 18C15.8954 18 15 18.8954 15 20C15 21.1046 15.8954 22 17 22Z" fill="#1C3261"/>
</svg>
