<svg width="18" height="18" viewBox="0 0 18 18" fill="none" xmlns="http://www.w3.org/2000/svg">
<path d="M16.9903 4.81471L4.47513 3.66297C4.40648 3.655 4.34186 3.655 4.27725 3.65899L3.77648 1.26783C3.76436 1.22001 3.75225 1.17218 3.73205 1.13233C3.65532 0.941037 3.49379 0.785611 3.27975 0.721847L0.89302 0.0284108C0.52552 -0.0791913 0.137828 0.128042 0.02879 0.494687C-0.0802483 0.857346 0.129751 1.23993 0.501289 1.34753L2.49225 1.9254L4.88705 13.3153C4.93148 13.65 5.22224 13.9091 5.57763 13.9091L15.8757 13.9051C16.2593 13.9051 16.5703 13.5982 16.5703 13.2196C16.5703 12.841 16.2593 12.5342 15.8757 12.5342L6.14705 12.5382L5.8159 10.964H16.0574C16.5945 10.964 17.059 10.6133 17.1559 10.1311L17.9838 6.01428C18.0928 5.42446 17.6405 4.87449 16.9903 4.81471Z" fill="white"/>
<path d="M8.18129 18C9.08502 18 9.81765 17.2674 9.81765 16.3637C9.81765 15.4599 9.08502 14.7273 8.18129 14.7273C7.27755 14.7273 6.54492 15.4599 6.54492 16.3637C6.54492 17.2674 7.27755 18 8.18129 18Z" fill="white"/>
<path d="M13.9098 18C14.8135 18 15.5462 17.2674 15.5462 16.3637C15.5462 15.4599 14.8135 14.7273 13.9098 14.7273C13.0061 14.7273 12.2734 15.4599 12.2734 16.3637C12.2734 17.2674 13.0061 18 13.9098 18Z" fill="white"/>
</svg>
