<svg width="40" height="40" viewBox="0 0 40 40" fill="none" xmlns="http://www.w3.org/2000/svg">
<path opacity="0.1" fill-rule="evenodd" clip-rule="evenodd" d="M20 40C31.0457 40 40 31.0457 40 20C40 8.9543 31.0457 0 20 0C8.9543 0 0 8.9543 0 20C0 31.0457 8.9543 40 20 40Z" fill="#2B869E"/>
<path fill-rule="evenodd" clip-rule="evenodd" d="M31.6301 11H9.88076C9.80348 11 9.72945 11.0106 9.65543 11.0212C9.63187 11.0246 9.60831 11.028 9.58465 11.0311L19.8823 18.3548L32.0627 11.0453C31.9222 11.0185 31.7785 11 31.6301 11ZM8.36793 29H30.1169C31.4254 29 32.4858 27.8935 32.4872 26.5275L34 13.4721C34 13.3653 33.9859 13.2627 33.9718 13.1602C33.9701 13.148 33.9684 13.1358 33.9668 13.1236L20.5917 21.1839C20.5826 21.1903 20.5734 21.195 20.5642 21.1996C20.5575 21.2029 20.5509 21.2062 20.5443 21.2103C20.5333 21.2172 20.5224 21.2232 20.5115 21.2292C20.5058 21.2323 20.5001 21.2354 20.4943 21.2387C20.4055 21.2862 20.3147 21.3241 20.2219 21.3493C20.214 21.3514 20.2066 21.3529 20.1987 21.3544C20.1968 21.3548 20.1948 21.3552 20.1928 21.3556C20.0909 21.381 19.9877 21.3962 19.8852 21.3962H19.8832H19.8823C19.78 21.3962 19.6766 21.3808 19.5747 21.3556C19.5724 21.3551 19.5701 21.3547 19.5678 21.3542C19.5604 21.3527 19.5533 21.3513 19.5455 21.3493C19.4526 21.3239 19.3618 21.286 19.2731 21.2387C19.2683 21.236 19.2635 21.2334 19.2587 21.2308C19.2466 21.2243 19.2347 21.2178 19.2232 21.2103C19.2167 21.2063 19.21 21.203 19.2034 21.1997C19.194 21.195 19.1846 21.1903 19.1757 21.1839L7.57539 12.9551L6 26.5269C6 26.698 6.01672 26.8648 6.04841 27.0269C6.05086 27.0399 6.05511 27.0523 6.05938 27.0646C6.06291 27.0749 6.06647 27.0852 6.06902 27.0959C6.09974 27.2323 6.1359 27.3667 6.18743 27.4929C6.19038 27.4996 6.19394 27.5057 6.19746 27.5119C6.20113 27.5182 6.20477 27.5245 6.20765 27.5313C6.265 27.665 6.33014 27.7945 6.4083 27.915C6.40927 27.9167 6.41068 27.9182 6.41209 27.9198C6.4135 27.9214 6.41491 27.923 6.41588 27.9246C6.50007 28.0524 6.59495 28.1724 6.69974 28.282C7.12787 28.7258 7.71698 29 8.36793 29Z" fill="#2B869E"/>
</svg>
