<svg width="114" height="23" viewBox="0 0 114 23" fill="none" xmlns="http://www.w3.org/2000/svg">
<path d="M16.55 5.53C16.55 5.02 16.52 4.3 16.49 3.43L16.4 1.33C16.37 0.699999 15.98 0.37 15.23 0.37C15.08 0.37 14.33 0.399999 13.01 0.49C11.69 0.549999 10.43 0.579999 9.23 0.579999H1.37C0.77 0.579999 0.47 0.789999 0.47 1.21C0.47 1.45 0.65 1.66 0.77 1.75C0.89 1.84 1.31 2.02 1.43 2.11C2.18 2.56 2.3 3.04 2.3 4.45V16.39C2.3 17.89 2.18 18.91 1.94 19.48C1.76 19.9 1.43 20.26 0.92 20.56C0.47 20.83 0.26 21.07 0.26 21.34C0.26 21.79 0.62 22 1.31 22H7.25C7.94 22 8.3 21.79 8.3 21.34C8.3 21.07 8.09 20.83 7.64 20.56C7.13 20.26 6.8 19.9 6.62 19.48C6.41 18.97 6.29 17.92 6.29 16.39V13.18C6.29 12.94 6.44 12.79 6.71 12.76C7.04 12.73 7.55 12.73 8.27 12.73C8.9 12.73 9.62 12.76 10.43 12.82C11.24 12.85 11.84 12.88 12.2 12.88C12.83 12.88 13.25 12.82 13.43 12.67C13.61 12.55 13.73 12.19 13.82 11.59C13.85 11.32 13.88 11.11 13.88 10.99C13.88 10.51 13.55 10.33 12.92 10.33C12.5 10.33 11.21 10.48 10.04 10.54C9.35 10.57 8.36 10.6 7.07 10.6C6.47 10.6 6.29 10.36 6.29 9.76V3.28C6.29 2.77 6.44 2.56 7.01 2.56H7.34C8.39 2.56 9.14 2.56 9.62 2.59C10.13 2.59 10.67 2.65 11.24 2.74C11.81 2.83 12.29 2.98 12.65 3.19C13.28 3.55 13.85 4.27 14 4.66C14.09 4.87 14.24 5.14 14.39 5.53C14.72 6.37 14.99 6.61 15.47 6.61C16.19 6.61 16.55 6.37 16.55 5.53ZM27.7199 14.44C27.7199 16.27 27.5399 17.53 27.2099 18.25C26.6399 19.42 25.5299 20.05 24.4199 20.05C23.2199 20.05 22.3199 19.27 22.3199 18.04C22.3199 17.14 22.7699 16.39 23.6399 15.79C24.0899 15.49 24.7499 15.13 25.6799 14.74C26.6099 14.35 27.2099 14.02 27.5399 13.78L27.6299 13.75C27.6899 13.75 27.7199 13.78 27.7199 13.84V14.44ZM32.8799 19.87C32.7599 19.87 32.4599 19.9 32.3699 19.9C31.7999 19.9 31.5299 19.09 31.5299 17.5C31.5299 16.9 31.5599 15.88 31.5899 14.44C31.6199 12.97 31.6499 11.89 31.6499 11.14C31.6499 9.61 31.0799 8.35 29.9099 7.42C28.7399 6.49 27.2399 6.01 25.4099 6.01C24.3299 6.01 23.3399 6.13 22.4099 6.34C21.2399 6.61 20.4299 7 20.0399 7.51C19.6799 7.96 19.4999 8.71 19.4999 9.76C19.4999 10.87 19.8299 11.44 20.4899 11.44C20.8799 11.44 21.2099 11.29 21.4199 11.02L22.0499 10.12C22.4399 9.55 22.8299 9.1 23.2199 8.77C23.8799 8.23 24.5999 7.96 25.4099 7.96C25.6799 7.96 25.9199 7.99 26.1599 8.05C27.2099 8.32 27.7199 9.13 27.7199 10.06C27.7199 11.17 26.9099 12.1 25.3199 12.85C25.0199 13 24.2399 13.27 23.0099 13.72C21.7799 14.17 20.8799 14.56 20.3099 14.92C18.9599 15.76 18.2999 16.93 18.2999 18.4C18.2999 19.6 18.7499 20.56 19.6799 21.28C20.6099 21.97 21.7199 22.33 23.0099 22.33C24.9299 22.33 26.8499 21.46 27.9299 19.87L28.0499 19.9C28.3199 21.55 29.3999 22.33 30.6899 22.33C31.7699 22.33 32.7899 21.82 33.2699 21.1C33.4199 20.89 33.4799 20.68 33.4799 20.47C33.4799 20.08 33.2699 19.87 32.8799 19.87ZM64.1939 7C64.1939 6.55 63.8339 6.34 63.1439 6.34H58.5539C57.8639 6.34 57.5039 6.55 57.5039 7C57.5039 7.24 57.6539 7.45 57.9239 7.63C58.7339 8.14 59.0339 8.5 59.0339 9.37C59.0339 10.06 58.7639 11.2 58.1939 12.79L56.4239 17.86C56.3939 18.01 56.2139 18.01 56.1839 17.86L52.2839 6.4C52.2239 6.22 52.0739 6.13 51.8039 6.13H49.5239C49.2539 6.13 49.1039 6.22 49.0439 6.4L44.9639 17.86C44.9339 17.92 44.9039 17.95 44.8439 17.95C44.8139 17.95 44.7839 17.92 44.7539 17.86L42.5339 10.75C42.3239 10 42.2039 9.43 42.2039 9.07C42.2039 8.5 42.5039 8.02 43.1339 7.63C43.4639 7.42 43.6139 7.21 43.6139 6.97C43.6139 6.55 43.3139 6.34 42.6839 6.34H36.9539C36.2339 6.34 35.8739 6.55 35.8739 7C35.8739 7.27 36.0539 7.48 36.4139 7.69C37.0139 8.02 37.3439 8.2 37.4339 8.29C37.8239 8.62 38.2139 9.43 38.6339 10.78L42.1139 21.91C42.2039 22.12 42.3539 22.21 42.6239 22.21H45.1439C45.3539 22.21 45.5039 22.12 45.5939 21.91L49.6139 10.75C49.6439 10.63 49.7639 10.63 49.7939 10.75L53.6039 21.94C53.6639 22.12 53.8139 22.21 54.0239 22.21H56.4839C56.6939 22.21 56.8439 22.12 56.9339 21.91C58.7339 16.96 59.9639 13.66 60.5939 12.07C61.0739 10.84 61.5539 9.88 62.0339 9.16C62.7239 8.17 63.2939 7.96 63.6539 7.72C64.0139 7.51 64.1939 7.27 64.1939 7ZM84.7391 20.56C84.2891 20.29 83.9591 19.93 83.7191 19.48C83.4791 19 83.3591 17.95 83.3591 16.3V12.07C83.3591 10.3 83.0591 8.95 82.4291 8.02C81.4991 6.67 80.1491 6.01 78.3491 6.01C76.2791 6.01 74.6591 6.88 73.4891 8.59C73.4291 8.68 73.3691 8.74 73.3391 8.74C73.2491 8.74 73.2191 8.68 73.2191 8.59V6.91C73.2191 6.31 72.9791 6.01 72.4691 6.01C72.2891 6.01 71.8991 6.13 71.2991 6.37C70.5791 6.67 69.5891 6.94 68.3591 7.21C67.7291 7.36 67.4291 7.6 67.4291 7.96C67.4291 8.23 67.6991 8.47 68.2691 8.68C68.7791 8.86 69.1391 9.13 69.3191 9.49C69.4691 9.82 69.5591 10.54 69.5591 11.71V16.3C69.5591 17.89 69.4391 18.97 69.2291 19.48C69.0491 19.87 68.6891 20.23 68.1791 20.56C67.7591 20.83 67.5491 21.07 67.5491 21.31C67.5491 21.76 67.8791 22 68.5391 22H74.2391C74.8991 22 75.2291 21.76 75.2291 21.31C75.2291 21.07 75.0191 20.83 74.5991 20.56C74.1191 20.29 73.7891 19.93 73.5791 19.48C73.3391 19 73.2191 17.95 73.2191 16.3C73.2191 14.35 73.3091 12.91 73.4891 11.98C73.6991 11.05 74.0591 10.3 74.5991 9.76C75.1991 9.16 75.9491 8.86 76.8491 8.86C78.6191 8.86 79.6691 10.06 79.6691 12.1V16.3C79.6691 17.95 79.5491 19 79.3091 19.48C79.0991 19.9 78.7691 20.26 78.2591 20.56C77.8391 20.83 77.6291 21.07 77.6291 21.31C77.6291 21.76 77.9591 22 78.6191 22H84.3791C85.0691 22 85.3991 21.76 85.3991 21.31C85.3991 21.04 85.1891 20.8 84.7391 20.56ZM98.2023 14.44C98.2023 16.27 98.0223 17.53 97.6923 18.25C97.1223 19.42 96.0123 20.05 94.9023 20.05C93.7023 20.05 92.8023 19.27 92.8023 18.04C92.8023 17.14 93.2523 16.39 94.1223 15.79C94.5723 15.49 95.2323 15.13 96.1623 14.74C97.0923 14.35 97.6923 14.02 98.0223 13.78L98.1123 13.75C98.1723 13.75 98.2023 13.78 98.2023 13.84V14.44ZM103.362 19.87C103.242 19.87 102.942 19.9 102.852 19.9C102.282 19.9 102.012 19.09 102.012 17.5C102.012 16.9 102.042 15.88 102.072 14.44C102.102 12.97 102.132 11.89 102.132 11.14C102.132 9.61 101.562 8.35 100.392 7.42C99.2223 6.49 97.7223 6.01 95.8923 6.01C94.8123 6.01 93.8223 6.13 92.8923 6.34C91.7223 6.61 90.9123 7 90.5223 7.51C90.1623 7.96 89.9823 8.71 89.9823 9.76C89.9823 10.87 90.3123 11.44 90.9723 11.44C91.3623 11.44 91.6923 11.29 91.9023 11.02L92.5323 10.12C92.9223 9.55 93.3123 9.1 93.7023 8.77C94.3623 8.23 95.0823 7.96 95.8923 7.96C96.1623 7.96 96.4023 7.99 96.6423 8.05C97.6923 8.32 98.2023 9.13 98.2023 10.06C98.2023 11.17 97.3923 12.1 95.8023 12.85C95.5023 13 94.7223 13.27 93.4923 13.72C92.2623 14.17 91.3623 14.56 90.7923 14.92C89.4423 15.76 88.7823 16.93 88.7823 18.4C88.7823 19.6 89.2323 20.56 90.1623 21.28C91.0923 21.97 92.2023 22.33 93.4923 22.33C95.4123 22.33 97.3323 21.46 98.4123 19.87L98.5323 19.9C98.8023 21.55 99.8823 22.33 101.172 22.33C102.252 22.33 103.272 21.82 103.752 21.1C103.902 20.89 103.962 20.68 103.962 20.47C103.962 20.08 103.752 19.87 103.362 19.87ZM113.6 19.66C113.6 19.21 113.27 18.67 112.58 18.01C111.92 17.32 111.38 16.99 110.93 16.99C110.48 16.99 109.94 17.32 109.25 18.01C108.59 18.7 108.26 19.24 108.26 19.66C108.26 20.08 108.59 20.62 109.25 21.31C109.94 22 110.48 22.33 110.93 22.33C111.38 22.33 111.92 22 112.58 21.31C113.27 20.62 113.6 20.08 113.6 19.66Z" fill="white"/>
</svg>
