<svg width="24" height="24" viewBox="0 0 24 24" fill="none" xmlns="http://www.w3.org/2000/svg">
<path d="M20.3035 11.6642L13.1249 5.21242C12.8098 4.92918 12.3346 4.92922 12.0196 5.21239L4.84095 11.6642C4.58855 11.8911 4.50517 12.2406 4.62849 12.5547C4.75183 12.8687 5.05214 13.0716 5.39361 13.0716H6.54017V19.5359C6.54017 19.7922 6.75085 20 7.0107 20H10.9455C11.2053 20 11.416 19.7922 11.416 19.5359V15.611H13.7286V19.5359C13.7286 19.7922 13.9393 20 14.1991 20H18.1337C18.3936 20 18.6042 19.7922 18.6042 19.5359V13.0716H19.751C20.0925 13.0716 20.3928 12.8687 20.5161 12.5547C20.6393 12.2406 20.5559 11.8911 20.3035 11.6642Z" fill="#2B869E"/>
</svg>
