<svg width="40" height="40" viewBox="0 0 40 40" fill="none" xmlns="http://www.w3.org/2000/svg">
<path opacity="0.1" fill-rule="evenodd" clip-rule="evenodd" d="M20 40C31.0457 40 40 31.0457 40 20C40 8.9543 31.0457 0 20 0C8.9543 0 0 8.9543 0 20C0 31.0457 8.9543 40 20 40Z" fill="#2B869E"/>
<path fill-rule="evenodd" clip-rule="evenodd" d="M18.767 16.1968C19.0821 15.0145 20.1328 14.1719 21.35 14.1719C22.7304 14.1719 23.8984 15.2586 24.0181 16.6873C24.0649 17.2467 24.5018 17.6942 25.0599 17.7546C25.718 17.8257 26.2937 18.2376 26.5981 18.8281H28.0305C28.4103 18.8281 28.7767 18.9066 29.1113 19.0507C28.8437 17.4451 27.7142 16.1236 26.2044 15.6192C25.6373 13.4492 23.6934 11.8281 21.35 11.8281C19.353 11.8281 17.6451 13.0072 16.8337 14.6968C14.6548 14.8558 12.9514 16.6452 12.8345 18.8314C12.8793 18.8292 12.9243 18.8281 12.9695 18.8281H15.1856C15.3029 17.7976 16.1565 17.029 17.15 17.029C17.2535 17.029 17.3544 17.0371 17.4522 17.0525C18.0449 17.1459 18.6124 16.7766 18.767 16.1968ZM23.3968 21.1719H13.3558C14.0857 22.5278 15.5017 23.4576 17.15 23.4576C18.4622 23.4576 19.6297 22.8652 20.4182 21.9412C20.6515 21.9857 20.8903 22.0138 21.1332 22.0243C21.8826 23.3028 23.2589 24.1719 24.85 24.1719C26.4614 24.1719 27.8507 23.2833 28.5941 21.9767L28.3982 21.4306C28.3425 21.2754 28.1954 21.1719 28.0305 21.1719H26.3029C25.9379 21.578 25.4167 21.8281 24.85 21.8281C24.2824 21.8281 23.7617 21.579 23.3968 21.1719Z" fill="#2B869E"/>
<path d="M18.767 16.1968L18.0121 15.9956V15.9956L18.767 16.1968ZM24.0181 16.6873L24.7966 16.6221V16.6221L24.0181 16.6873ZM25.0599 17.7546L25.1439 16.9778V16.9778L25.0599 17.7546ZM26.5981 18.8281L25.9037 19.1861C26.0377 19.446 26.3057 19.6094 26.5981 19.6094V18.8281ZM29.1113 19.0507L28.8023 19.7682C29.0648 19.8813 29.3681 19.8419 29.5931 19.6656C29.8181 19.4893 29.9289 19.2042 29.8819 18.9222L29.1113 19.0507ZM26.2044 15.6192L25.4485 15.8167C25.5153 16.0721 25.7064 16.2765 25.9568 16.3601L26.2044 15.6192ZM16.8337 14.6968L16.8906 15.4759C17.1698 15.4556 17.4168 15.2873 17.538 15.035L16.8337 14.6968ZM12.8345 18.8314L12.0544 18.7897C12.0426 19.0105 12.1249 19.226 12.2809 19.3827C12.4369 19.5394 12.652 19.6226 12.8729 19.6117L12.8345 18.8314ZM15.1856 18.8281V19.6094C15.5829 19.6094 15.9169 19.3112 15.9618 18.9165L15.1856 18.8281ZM17.4522 17.0525L17.5738 16.2808L17.5738 16.2808L17.4522 17.0525ZM23.3968 21.1719L23.9785 20.6504C23.8303 20.4851 23.6188 20.3906 23.3968 20.3906V21.1719ZM13.3558 21.1719V20.3906C13.0808 20.3906 12.8261 20.5352 12.6851 20.7712C12.5441 21.0073 12.5376 21.3001 12.6679 21.5422L13.3558 21.1719ZM20.4182 21.9412L20.5647 21.1738C20.289 21.1212 20.0062 21.2205 19.824 21.434L20.4182 21.9412ZM21.1332 22.0243L21.8071 21.6292C21.673 21.4004 21.4319 21.2553 21.167 21.2438L21.1332 22.0243ZM28.5941 21.9767L29.2731 22.363C29.3858 22.1649 29.4064 21.9274 29.3294 21.7129L28.5941 21.9767ZM28.3982 21.4306L27.6628 21.6944L27.6628 21.6944L28.3982 21.4306ZM26.3029 21.1719V20.3906C26.0812 20.3906 25.87 20.4848 25.7218 20.6497L26.3029 21.1719ZM21.35 13.3906C19.762 13.3906 18.414 14.4878 18.0121 15.9956L19.5219 16.398C19.7503 15.5412 20.5036 14.9531 21.35 14.9531V13.3906ZM24.7966 16.6221C24.6442 14.8034 23.1512 13.3906 21.35 13.3906V14.9531C22.3096 14.9531 23.1525 15.7139 23.2396 16.7526L24.7966 16.6221ZM25.1439 16.9778C24.9578 16.9577 24.8122 16.8085 24.7966 16.6221L23.2396 16.7526C23.3177 17.6848 24.0458 18.4307 24.9759 18.5313L25.1439 16.9778ZM27.2925 18.4701C26.874 17.6583 26.0759 17.0787 25.1439 16.9778L24.9759 18.5313C25.36 18.5728 25.7133 18.8168 25.9037 19.1861L27.2925 18.4701ZM26.5981 19.6094H28.0305V18.0469H26.5981V19.6094ZM28.0305 19.6094C28.3022 19.6094 28.5636 19.6654 28.8023 19.7682L29.4202 18.3331C28.9899 18.1478 28.5185 18.0469 28.0305 18.0469V19.6094ZM25.9568 16.3601C27.1893 16.7719 28.12 17.8555 28.3406 19.1791L29.8819 18.9222C29.5673 17.0347 28.2392 15.4753 26.4519 14.8782L25.9568 16.3601ZM21.35 12.6094C23.3188 12.6094 24.9663 13.9716 25.4485 15.8167L26.9602 15.4216C26.3083 12.9268 24.068 11.0469 21.35 11.0469V12.6094ZM17.538 15.035C18.2274 13.5993 19.6717 12.6094 21.35 12.6094V11.0469C19.0343 11.0469 17.0627 12.4151 16.1294 14.3586L17.538 15.035ZM13.6147 18.8731C13.7112 17.0668 15.1169 15.6054 16.8906 15.4759L16.7768 13.9176C14.1927 14.1062 12.1915 16.2236 12.0544 18.7897L13.6147 18.8731ZM12.8729 19.6117C12.9049 19.6102 12.9371 19.6094 12.9695 19.6094V18.0469C12.9115 18.0469 12.8537 18.0483 12.7962 18.0511L12.8729 19.6117ZM12.9695 19.6094H15.1856V18.0469H12.9695V19.6094ZM17.15 16.2478C15.745 16.2478 14.57 17.3289 14.4094 18.7397L15.9618 18.9165C16.0359 18.2664 16.568 17.8103 17.15 17.8103V16.2478ZM17.5738 16.2808C17.4359 16.2591 17.2944 16.2478 17.15 16.2478V17.8103C17.2126 17.8103 17.2728 17.8152 17.3306 17.8243L17.5738 16.2808ZM18.0121 15.9956C17.9606 16.1888 17.7714 16.3119 17.5738 16.2808L17.3306 17.8243C18.3185 17.9799 19.2643 17.3643 19.5219 16.398L18.0121 15.9956ZM23.3968 20.3906H13.3558V21.9531H23.3968V20.3906ZM17.15 22.6763C15.8065 22.6763 14.6458 21.92 14.0437 20.8016L12.6679 21.5422C13.5257 23.1356 15.1969 24.2388 17.15 24.2388V22.6763ZM19.824 21.434C19.1751 22.1944 18.2203 22.6763 17.15 22.6763V24.2388C18.704 24.2388 20.0843 23.536 21.0125 22.4483L19.824 21.434ZM21.167 21.2438C20.9621 21.2349 20.761 21.2112 20.5647 21.1738L20.2718 22.7086C20.542 22.7602 20.8184 22.7927 21.0993 22.8048L21.167 21.2438ZM24.85 23.3906C23.5533 23.3906 22.4252 22.6837 21.8071 21.6292L20.4592 22.4194C21.34 23.922 22.9645 24.9531 24.85 24.9531V23.3906ZM27.915 21.5903C27.302 22.6679 26.1636 23.3906 24.85 23.3906V24.9531C26.7591 24.9531 28.3994 23.8987 29.2731 22.363L27.915 21.5903ZM29.3294 21.7129L29.1335 21.1668L27.6628 21.6944L27.8587 22.2405L29.3294 21.7129ZM29.1335 21.1668C28.9665 20.7012 28.5251 20.3906 28.0305 20.3906V21.9531C27.8656 21.9531 27.7185 21.8496 27.6628 21.6944L29.1335 21.1668ZM28.0305 20.3906H26.3029V21.9531H28.0305V20.3906ZM24.85 22.6094C25.6509 22.6094 26.3794 22.2556 26.884 21.6941L25.7218 20.6497C25.4965 20.9004 25.1826 21.0469 24.85 21.0469V22.6094ZM22.815 21.6933C23.3204 22.2572 24.0491 22.6094 24.85 22.6094V21.0469C24.5157 21.0469 24.2029 20.9008 23.9785 20.6504L22.815 21.6933Z" fill="#2B869E"/>
<path fill-rule="evenodd" clip-rule="evenodd" d="M10.0988 21.1761C10.3376 20.5861 10.9106 20.2 11.5471 20.2H30.4529C31.0894 20.2 31.6624 20.5861 31.9012 21.1761L34.13 26.6813C34.5459 27.7085 33.7899 28.8302 32.6817 28.8302H9.31828C8.21008 28.8302 7.4541 27.7085 7.86997 26.6813L10.0988 21.1761Z" stroke="#2B869E" stroke-width="1.5625"/>
<path d="M23.6312 25.5H33.1645" stroke="#2B869E" stroke-width="2" stroke-linecap="round" stroke-linejoin="round"/>
<path d="M17 25.5H20.1645" stroke="#2B869E" stroke-width="2" stroke-linecap="round" stroke-linejoin="round"/>
</svg>
