<svg width="40" height="40" viewBox="0 0 40 40" fill="none" xmlns="http://www.w3.org/2000/svg">
<path opacity="0.1" fill-rule="evenodd" clip-rule="evenodd" d="M20 40C31.0457 40 40 31.0457 40 20C40 8.9543 31.0457 0 20 0C8.9543 0 0 8.9543 0 20C0 31.0457 8.9543 40 20 40Z" fill="#2B869E"/>
<path d="M30.9196 18.8004C31.3229 18.5764 31.662 18.244 31.8978 17.8356C32.5925 16.6324 32.21 15.1063 31.0453 14.4338C30.6502 14.2057 30.2007 14.0983 29.7465 14.119C29.5375 13.7154 29.2198 13.3798 28.8245 13.1516C28.4293 12.9235 27.9799 12.816 27.5257 12.8369C27.3166 12.4331 26.9989 12.0976 26.6037 11.8695C26.2084 11.6412 25.7591 11.5339 25.3049 11.5547C25.0958 11.1509 24.7781 10.8155 24.383 10.5873C23.2181 9.9148 21.7053 10.3467 21.0106 11.5499C20.7748 11.9583 20.6566 12.4182 20.6643 12.8795C20.261 13.1035 19.9217 13.4359 19.686 13.8442C19.4503 14.2525 19.332 14.7126 19.3397 15.1737C18.9364 15.3977 18.5971 15.7302 18.3614 16.1385C18.1256 16.5468 18.0073 17.0067 18.015 17.468C17.6117 17.692 17.2725 18.0244 17.0368 18.4328C16.8011 18.841 16.6827 19.3011 16.6904 19.7622C16.2871 19.9862 15.948 20.3186 15.7122 20.727C15.4765 21.1353 15.3581 21.5953 15.3658 22.0566C14.9625 22.2806 14.6233 22.613 14.3876 23.0212C13.6929 24.2246 14.0753 25.7507 15.24 26.4231C15.6353 26.6514 16.0847 26.7586 16.5389 26.7378C16.7479 27.1417 17.0657 27.4772 17.4609 27.7054C17.856 27.9335 18.3055 28.0409 18.7597 28.0201C18.9687 28.4238 19.2864 28.7593 19.6816 28.9875C20.0769 29.2157 20.5263 29.3231 20.9805 29.3023C21.1896 29.706 21.5073 30.0416 21.9025 30.2697C23.0672 30.9422 24.58 30.5103 25.2747 29.3071C25.5105 28.8987 25.6288 28.4388 25.6212 27.9775C26.0245 27.7535 26.3636 27.4211 26.5994 27.0127C26.8351 26.6045 26.9535 26.1445 26.9457 25.6833C27.349 25.4593 27.6882 25.1268 27.9239 24.7185C28.1597 24.3101 28.278 23.8502 28.2704 23.389C28.6736 23.1651 29.0128 22.8325 29.2485 22.4243C29.4843 22.0159 29.6026 21.556 29.5949 21.0947C29.9982 20.8707 30.3374 20.5383 30.5731 20.1299C30.8089 19.7216 30.9272 19.2617 30.9196 18.8004Z" stroke="#2B869E" stroke-width="2"/>
<path d="M23.3164 16.6017C23.5752 16.1722 23.7143 15.6757 23.7143 15.1638C23.7143 13.6556 22.5206 12.4285 21.0534 12.4285C20.5556 12.4285 20.0724 12.5714 19.6546 12.8375C19.237 12.5714 18.7538 12.4285 18.2559 12.4285C17.7581 12.4285 17.2749 12.5714 16.8572 12.8375C16.4394 12.5714 15.9562 12.4285 15.4584 12.4285C14.9605 12.4285 14.4774 12.5714 14.0596 12.8375C13.6419 12.5714 13.1588 12.4285 12.661 12.4285C11.1937 12.4285 10 13.6556 10 15.1638C10 15.6757 10.1392 16.1722 10.3981 16.6017C10.1392 17.0312 10 17.5278 10 18.0396C10 18.5514 10.1392 19.0481 10.3981 19.4774C10.1392 19.9069 10 20.4036 10 20.9153C10 21.4272 10.1391 21.9238 10.3979 22.3533C10.1391 22.7828 10 23.2793 10 23.7912C10 24.3029 10.1391 24.7997 10.3979 25.229C10.1391 25.6585 10 26.155 10 26.6669C10 27.1786 10.1391 27.6754 10.3979 28.1048C10.1391 28.5343 10 29.0309 10 29.5426C10 31.051 11.1937 32.2781 12.6609 32.2781C13.1588 32.2781 13.6419 32.135 14.0596 31.8689C14.4774 32.1351 14.9606 32.2781 15.4584 32.2781C15.9562 32.2781 16.4394 32.1351 16.8572 31.869C17.2749 32.1351 17.7581 32.2781 18.2559 32.2781C18.7538 32.2781 19.237 32.1351 19.6546 31.869C20.0724 32.1351 20.5556 32.2781 21.0534 32.2781C22.5206 32.2781 23.7143 31.051 23.7143 29.5428C23.7143 29.0309 23.5752 28.5343 23.3164 28.1048C23.5752 27.6754 23.7143 27.1788 23.7143 26.6669C23.7143 26.1552 23.5752 25.6585 23.3164 25.2291C23.5752 24.7997 23.7143 24.3029 23.7143 23.7912C23.7143 23.2793 23.5752 22.7828 23.3164 22.3533C23.5752 21.9239 23.7143 21.4272 23.7143 20.9155C23.7143 20.4036 23.5752 19.9071 23.3164 19.4776C23.5752 19.0481 23.7143 18.5515 23.7143 18.0396C23.7143 17.5278 23.5752 17.0312 23.3164 16.6017Z" fill="#2B869E"/>
<path fill-rule="evenodd" clip-rule="evenodd" d="M15.1427 18.1429C15.4583 18.1429 15.7141 17.887 15.7141 17.5714C15.7141 17.2558 15.4583 17 15.1427 17C14.8271 17 14.5713 17.2558 14.5713 17.5714C14.5713 17.887 14.8271 18.1429 15.1427 18.1429Z" fill="#EBFBFF"/>
<path fill-rule="evenodd" clip-rule="evenodd" d="M18.5714 18.1429C18.887 18.1429 19.1429 17.887 19.1429 17.5714C19.1429 17.2558 18.887 17 18.5714 17C18.2558 17 18 17.2558 18 17.5714C18 17.887 18.2558 18.1429 18.5714 18.1429Z" fill="#EBFBFF"/>
<path fill-rule="evenodd" clip-rule="evenodd" d="M15.1427 21.5713C15.4583 21.5713 15.7141 21.3155 15.7141 20.9999C15.7141 20.6843 15.4583 20.4285 15.1427 20.4285C14.8271 20.4285 14.5713 20.6843 14.5713 20.9999C14.5713 21.3155 14.8271 21.5713 15.1427 21.5713Z" fill="#EBFBFF"/>
<path fill-rule="evenodd" clip-rule="evenodd" d="M18.5714 21.5713C18.887 21.5713 19.1429 21.3155 19.1429 20.9999C19.1429 20.6843 18.887 20.4285 18.5714 20.4285C18.2558 20.4285 18 20.6843 18 20.9999C18 21.3155 18.2558 21.5713 18.5714 21.5713Z" fill="#EBFBFF"/>
<path fill-rule="evenodd" clip-rule="evenodd" d="M15.1427 25C15.4583 25 15.7141 24.7442 15.7141 24.4286C15.7141 24.113 15.4583 23.8572 15.1427 23.8572C14.8271 23.8572 14.5713 24.113 14.5713 24.4286C14.5713 24.7442 14.8271 25 15.1427 25Z" fill="#EBFBFF"/>
<path fill-rule="evenodd" clip-rule="evenodd" d="M18.5714 25C18.887 25 19.1429 24.7442 19.1429 24.4286C19.1429 24.113 18.887 23.8572 18.5714 23.8572C18.2558 23.8572 18 24.113 18 24.4286C18 24.7442 18.2558 25 18.5714 25Z" fill="#EBFBFF"/>
<path fill-rule="evenodd" clip-rule="evenodd" d="M15.1427 28.4285C15.4583 28.4285 15.7141 28.1727 15.7141 27.8571C15.7141 27.5415 15.4583 27.2856 15.1427 27.2856C14.8271 27.2856 14.5713 27.5415 14.5713 27.8571C14.5713 28.1727 14.8271 28.4285 15.1427 28.4285Z" fill="#EBFBFF"/>
<path fill-rule="evenodd" clip-rule="evenodd" d="M18.5714 28.4285C18.887 28.4285 19.1429 28.1727 19.1429 27.8571C19.1429 27.5415 18.887 27.2856 18.5714 27.2856C18.2558 27.2856 18 27.5415 18 27.8571C18 28.1727 18.2558 28.4285 18.5714 28.4285Z" fill="#EBFBFF"/>
</svg>
