<svg width="40" height="40" viewBox="0 0 40 40" fill="none" xmlns="http://www.w3.org/2000/svg">
<path opacity="0.1" fill-rule="evenodd" clip-rule="evenodd" d="M20 40C31.0457 40 40 31.0457 40 20C40 8.9543 31.0457 0 20 0C8.9543 0 0 8.9543 0 20C0 31.0457 8.9543 40 20 40Z" fill="#2B869E"/>
<path fill-rule="evenodd" clip-rule="evenodd" d="M19.7001 27.7103C24.2346 26.4953 26.9255 21.8344 25.7105 17.2999C24.4955 12.7655 19.8347 10.0745 15.3002 11.2895C10.7658 12.5045 8.0748 17.1654 9.28981 21.6999C10.5048 26.2343 15.1657 28.9253 19.7001 27.7103Z" stroke="#2B869E" stroke-width="2"/>
<mask id="mask0" mask-type="alpha" maskUnits="userSpaceOnUse" x="5" y="7" width="25" height="25">
<path fill-rule="evenodd" clip-rule="evenodd" d="M19.7001 27.7103C24.2346 26.4953 26.9255 21.8344 25.7105 17.2999C24.4955 12.7655 19.8347 10.0745 15.3002 11.2895C10.7658 12.5045 8.0748 17.1654 9.28981 21.6999C10.5048 26.2343 15.1657 28.9253 19.7001 27.7103Z" fill="white" stroke="white" stroke-width="2"/>
</mask>
<g mask="url(#mask0)">
<path fill-rule="evenodd" clip-rule="evenodd" d="M31.291 24.6046C35.8254 23.3896 38.5164 18.7287 37.3014 14.1942C36.0864 9.65977 31.4255 6.96882 26.891 8.18383C22.3566 9.39883 19.6656 14.0597 20.8806 18.5942C22.0956 23.1286 26.7565 25.8196 31.291 24.6046Z" stroke="#2B869E" stroke-width="2"/>
<path fill-rule="evenodd" clip-rule="evenodd" d="M8.10932 30.816C12.6438 29.601 15.3347 24.9401 14.1197 20.4057C12.9047 15.8712 8.24385 13.1802 3.70939 14.3953C-0.825069 15.6103 -3.51602 20.2711 -2.30101 24.8056C-1.08601 29.34 3.57485 32.031 8.10932 30.816Z" stroke="#2B869E" stroke-width="2"/>
</g>
<path d="M20.8422 30.1511C23.5759 32.8848 28.0081 32.8848 30.7417 30.1511C33.4754 27.4174 33.4754 22.9853 30.7417 20.2516C28.0081 17.5179 23.5759 17.5179 20.8422 20.2516C18.1086 22.9853 18.1086 27.4174 20.8422 30.1511Z" fill="#2B869E" stroke="#E9F2F5" stroke-width="2"/>
<mask id="mask1" mask-type="alpha" maskUnits="userSpaceOnUse" x="14" y="13" width="24" height="24">
<path d="M20.8422 30.1511C23.5759 32.8848 28.0081 32.8848 30.7417 30.1511C33.4754 27.4174 33.4754 22.9853 30.7417 20.2516C28.0081 17.5179 23.5759 17.5179 20.8422 20.2516C18.1086 22.9853 18.1086 27.4174 20.8422 30.1511Z" fill="white" stroke="white" stroke-width="2"/>
</mask>
<g mask="url(#mask1)">
<path fill-rule="evenodd" clip-rule="evenodd" d="M27.5386 35.4335C29.8818 37.7766 33.6807 37.7766 36.0239 35.4335C38.367 33.0903 38.367 29.2914 36.0239 26.9482C33.6807 24.6051 29.8818 24.6051 27.5386 26.9482C25.1955 29.2914 25.1955 33.0903 27.5386 35.4335Z" stroke="#E9F2F5" stroke-width="2"/>
<path fill-rule="evenodd" clip-rule="evenodd" d="M15.5601 23.4545C17.9032 25.7976 21.7022 25.7976 24.0454 23.4545C26.3885 21.1113 26.3885 17.3123 24.0454 14.9692C21.7022 12.6261 17.9032 12.6261 15.5601 14.9692C13.2169 17.3123 13.2169 21.1113 15.5601 23.4545Z" stroke="#E9F2F5" stroke-width="2"/>
</g>
</svg>
