<svg width="40" height="40" viewBox="0 0 40 40" fill="none" xmlns="http://www.w3.org/2000/svg">
<path opacity="0.1" fill-rule="evenodd" clip-rule="evenodd" d="M20 40C31.0457 40 40 31.0457 40 20C40 8.9543 31.0457 0 20 0C8.9543 0 0 8.9543 0 20C0 31.0457 8.9543 40 20 40Z" fill="#2B869E"/>
<path fill-rule="evenodd" clip-rule="evenodd" d="M20.6786 14.2597C22.1579 14.2597 23.3571 13.0823 23.3571 11.6299C23.3571 10.1774 22.1579 9 20.6786 9C19.1992 9 18 10.1774 18 11.6299C18 13.0823 19.1992 14.2597 20.6786 14.2597Z" stroke="#2B869E" stroke-width="1.8"/>
<path fill-rule="evenodd" clip-rule="evenodd" d="M28.2144 16.643C29.2006 16.643 30.0001 15.858 30.0001 14.8897C30.0001 13.9214 29.2006 13.1365 28.2144 13.1365C27.2282 13.1365 26.4287 13.9214 26.4287 14.8897C26.4287 15.858 27.2282 16.643 28.2144 16.643Z" stroke="#2B869E" stroke-width="1.8"/>
<path fill-rule="evenodd" clip-rule="evenodd" d="M12.7857 16.643C13.7719 16.643 14.5714 15.858 14.5714 14.8897C14.5714 13.9214 13.7719 13.1365 12.7857 13.1365C11.7995 13.1365 11 13.9214 11 14.8897C11 15.858 11.7995 16.643 12.7857 16.643Z" stroke="#2B869E" stroke-width="1.8"/>
<path fill-rule="evenodd" clip-rule="evenodd" d="M21 33C25.4183 33 29 29.4183 29 25C29 20.5817 25.4183 17 21 17C16.5817 17 13 20.5817 13 25C13 29.4183 16.5817 33 21 33ZM19.6667 23.6667V21H22.3333V23.6667H25V26.3333H22.3333V29H19.6667V26.3333H17V23.6667H19.6667Z" fill="#2B869E"/>
</svg>
