<svg width="40" height="40" viewBox="0 0 40 40" fill="none" xmlns="http://www.w3.org/2000/svg">
<path opacity="0.1" fill-rule="evenodd" clip-rule="evenodd" d="M20 40C31.0457 40 40 31.0457 40 20C40 8.9543 31.0457 0 20 0C8.9543 0 0 8.9543 0 20C0 31.0457 8.9543 40 20 40Z" fill="#2B869E"/>
<path fill-rule="evenodd" clip-rule="evenodd" d="M13.5 28.7573C17.0899 28.7573 20 25.8472 20 22.2573C20 18.6675 17.0899 15.7573 13.5 15.7573C9.91015 15.7573 7 18.6675 7 22.2573C7 25.8472 9.91015 28.7573 13.5 28.7573Z" stroke="#2B869E" stroke-width="2"/>
<path d="M13 18.7573C11.3431 18.7573 10 20.1005 10 21.7573" stroke="#2B869E" stroke-width="2" stroke-linecap="round" stroke-linejoin="round"/>
<path fill-rule="evenodd" clip-rule="evenodd" d="M27.5 19.7573C30.5376 19.7573 33 17.2949 33 14.2573C33 11.2198 30.5376 8.75732 27.5 8.75732C24.4624 8.75732 22 11.2198 22 14.2573C22 17.2949 24.4624 19.7573 27.5 19.7573Z" stroke="#2B869E" stroke-width="2"/>
<path d="M27 11.7573C25.8954 11.7573 25 12.6528 25 13.7573" stroke="#2B869E" stroke-width="2" stroke-linecap="round" stroke-linejoin="round"/>
<path fill-rule="evenodd" clip-rule="evenodd" d="M19.5 32.7573C21.9853 32.7573 24 30.7426 24 28.2573C24 25.772 21.9853 23.7573 19.5 23.7573C17.0147 23.7573 15 25.772 15 28.2573C15 30.7426 17.0147 32.7573 19.5 32.7573Z" fill="#2B869E" stroke="#2B869E" stroke-width="2"/>
<path d="M20 26.7573C18.8954 26.7573 18 27.6528 18 28.7573" stroke="#EBFBFF" stroke-width="2" stroke-linecap="round" stroke-linejoin="round"/>
<path fill-rule="evenodd" clip-rule="evenodd" d="M31.5994 22.2778C31.6069 22.2098 31.7058 22.2098 31.7131 22.2777C31.9989 24.9377 34.0904 27.0443 36.7482 27.3492L36.8069 27.356C36.8751 27.3638 36.8742 27.4631 36.806 27.4706C34.1305 27.7679 32.0117 29.8807 31.7144 32.5562C31.7068 32.6245 31.6076 32.6245 31.6 32.5562C31.3027 29.8807 29.1907 27.7687 26.5152 27.4714C26.4469 27.4638 26.4477 27.3645 26.516 27.3569C29.1869 27.0601 31.3026 24.9487 31.5994 22.2778Z" fill="#2B869E"/>
<path fill-rule="evenodd" clip-rule="evenodd" d="M15.1988 5.14767C15.2045 5.09669 15.2786 5.09665 15.2841 5.14764C15.4985 7.14262 17.067 8.72253 19.0604 8.95127L19.1044 8.95632C19.1556 8.96219 19.1549 9.03662 19.1037 9.04231C17.0971 9.26527 15.508 10.8499 15.2851 12.8565C15.2794 12.9077 15.205 12.9077 15.1993 12.8565C14.9763 10.8499 13.3923 9.26582 11.3857 9.04287C11.3345 9.03718 11.3351 8.96269 11.3863 8.957C13.3895 8.73442 14.9762 7.15088 15.1988 5.14767Z" fill="#2B869E"/>
</svg>
