<svg width="109" height="26" viewBox="0 0 109 26" fill="none" xmlns="http://www.w3.org/2000/svg">
<path fill-rule="evenodd" clip-rule="evenodd" d="M10.2594 0C13.4079 0 15 1.49327 15 3.0226C15 3.83892 14.5918 4.37422 13.6674 4.37422C12.5571 4.37422 12.4812 3.37923 11.1854 3.37923C10.0756 3.37923 9.22194 5.08485 9.59287 8.35539H10.1479C11.5551 8.35539 12.3699 9.03341 12.3699 10.0642C12.3699 10.9534 11.852 11.7346 10.1871 11.7346H10.1479V21.7972C11.0747 21.7972 11.852 22.4742 11.852 23.5051C11.852 24.2871 11.4799 24.7498 11.2601 25H0.853941C0.629291 24.7498 0.260101 24.2871 0.260101 23.5051C0.260101 22.4742 1.07299 21.7972 1.99858 21.7972V11.7346H1.89074C0.446189 11.7346 0 10.8112 0 10.0642C0 9.03341 0.814758 8.35539 1.99858 8.35539H2.25806C2.8886 3.70062 4.48117 0 10.2594 0Z" fill="#FDA990"/>
<path fill-rule="evenodd" clip-rule="evenodd" d="M22.6841 17.3263C21.6233 17.3263 20.8547 18.5645 20.8547 19.8791C20.8547 21.2621 21.6233 22.4299 22.6121 22.4299C23.5628 22.4299 24.3328 21.7369 24.3328 20.5675V17.724C23.8556 17.4685 23.307 17.3263 22.6841 17.3263ZM33.9567 24.1423C33.9567 24.9442 33.5896 25.4184 33.3689 25.6751H24.4779V23.9975H24.4428C23.5277 25.1998 21.4776 26 19.2815 26C14.9646 26 12.0742 23.8873 12.0742 20.277C12.0742 17.1412 14.7076 14.5883 20.0139 14.5883C21.7691 14.5883 23.1612 14.8094 24.2572 15.1735V14.8094C24.2572 12.2554 23.4528 11.2353 22.2104 11.2353C20.2703 11.2353 18.1101 13.3135 16.3913 13.3135C15.2924 13.3135 14.889 12.7309 14.889 11.9299C14.889 10.2524 18.3665 8.06348 22.4288 8.06348C26.0147 8.06348 31.9814 8.57495 32.1272 16.3405L32.2378 22.3914H32.2729C33.1873 22.3914 33.9567 23.0854 33.9567 24.1423Z" fill="#FDA990"/>
<path fill-rule="evenodd" clip-rule="evenodd" d="M62.4122 9.07398C62.634 9.3275 63 9.79542 63 10.5935C63 11.6766 62.2666 12.2934 60.9112 12.3281C60.7258 12.7638 59.9936 14.4638 59.26 16.4156L55.7377 26H50.8223L47.6697 18.586H47.6327L44.7365 26H39.7847L34.6488 12.3281C33.7704 12.2934 33 11.6043 33 10.5935C33 9.79542 33.3638 9.3275 33.5856 9.07398H44.1121C44.3685 9.3275 44.6972 9.79542 44.6972 10.5935C44.6972 11.5684 44.0018 12.2227 43.1587 12.2934L45.065 17.3206H45.1754L48.2183 9.03584H52.2535L55.774 17.3206H55.885L57.0221 13.9922C57.39 12.9446 57.5009 12.5816 57.5725 12.2576C56.4342 12.2576 55.6632 11.6043 55.6632 10.5211C55.6632 9.72545 56.0311 9.2534 56.2523 9H62.4485L62.4122 9.07398Z" fill="#FDA990"/>
<path fill-rule="evenodd" clip-rule="evenodd" d="M86 23.4954C86 24.2826 85.6402 24.7481 85.4248 25H76.418V14.9427C76.418 12.6144 75.4853 11.7235 74.4457 11.7235C73.4051 11.7235 72.5791 12.6144 72.5791 14.6204V21.7768C73.5147 21.7768 74.2678 22.4581 74.2678 23.4954C74.2678 24.2826 73.9085 24.7481 73.6921 25H63.5758C63.3594 24.7481 63 24.2826 63 23.4954C63 22.4581 63.7875 21.7768 64.6854 21.7768V11.4728C63.7875 11.4728 63 10.7908 63 9.75468C63 8.96742 63.3594 8.50024 63.5758 8.24952H72.5791V10.0392H72.617C73.6227 9.14831 74.9831 8 77.7475 8C81.0837 8 84.3112 9.93376 84.3112 14.4075V21.7768C85.2085 21.7768 86 22.4581 86 23.4954Z" fill="#FDA990"/>
<path fill-rule="evenodd" clip-rule="evenodd" d="M97.6285 17.3263C96.5677 17.3263 95.799 18.5645 95.799 19.8791C95.799 21.2621 96.5677 22.4299 97.5584 22.4299C98.5078 22.4299 99.2759 21.7369 99.2759 20.5675V17.724C98.7994 17.4685 98.2513 17.3263 97.6285 17.3263ZM108.9 24.1423C108.9 24.9442 108.534 25.4184 108.313 25.6751H99.4224V23.9975H99.3859C98.4715 25.1998 96.422 26 94.226 26C89.9078 26 87.0176 23.8873 87.0176 20.277C87.0176 17.1412 89.6524 14.5883 94.9588 14.5883C96.714 14.5883 98.1045 14.8094 99.201 15.1735V14.8094C99.201 12.2554 98.3978 11.2353 97.1544 11.2353C95.2153 11.2353 93.0546 13.3135 91.3344 13.3135C90.2357 13.3135 89.8341 12.7309 89.8341 11.9299C89.8341 10.2524 93.3114 8.06348 97.3721 8.06348C100.96 8.06348 106.925 8.57495 107.07 16.3405L107.181 22.3914H107.217C108.131 22.3914 108.9 23.0854 108.9 24.1423Z" fill="#FDA990"/>
</svg>
