<svg width="18" height="18" viewBox="0 0 18 18" fill="none" xmlns="http://www.w3.org/2000/svg">
<path fill-rule="evenodd" clip-rule="evenodd" d="M6.01979 9.21993C8.24091 9.21993 10.0396 7.38091 10.0396 5.10996C10.0396 2.83902 8.24091 1 6.01979 1C3.79868 1 2 2.83902 2 5.10996C2.0033 7.37753 3.80198 9.21993 6.01979 9.21993ZM3.66006 5.32592C3.66006 5.24831 3.72277 5.1842 3.79868 5.1842H4.18151V4.92437H3.79868C3.72277 4.92437 3.66006 4.86026 3.66006 4.78265V4.46546C3.66006 4.38785 3.72277 4.32374 3.79868 4.32374H4.28382L4.30033 4.27312C4.43234 3.84796 4.65676 3.4869 5.00329 3.2102C5.27722 2.99087 5.59735 2.87277 5.93729 2.8154C6.42243 2.73442 6.89108 2.80528 7.34652 2.98412C7.3704 2.99226 7.39428 3.00476 7.41644 3.01636L7.43233 3.02461C7.54124 3.0921 7.57095 3.17308 7.52144 3.29119C7.47194 3.41604 7.41913 3.54426 7.36303 3.66574C7.31352 3.77372 7.24751 3.80746 7.1386 3.78047C7.07818 3.76601 7.01876 3.75002 6.95956 3.73408L6.95956 3.73408L6.95955 3.73408C6.86678 3.7091 6.77455 3.68428 6.67986 3.66574C6.35643 3.59825 6.033 3.59488 5.71616 3.7231C5.44554 3.83446 5.28052 4.04367 5.16501 4.30687V4.31699H6.1089C6.18481 4.31699 6.24752 4.3811 6.24752 4.45871V4.7759C6.24752 4.85351 6.18481 4.91763 6.1089 4.91763H5.0297V5.17745H6.1089C6.18481 5.17745 6.24752 5.24156 6.24752 5.31917V5.63636C6.24752 5.71397 6.18481 5.77809 6.1089 5.77809H5.12211C5.24092 6.12565 5.43564 6.39559 5.79867 6.51032C6.0891 6.6048 6.38283 6.59805 6.67656 6.53732C6.75246 6.52045 6.82753 6.5002 6.9026 6.47996L6.90263 6.47995L6.90266 6.47994C6.97773 6.4597 7.0528 6.43946 7.1287 6.42259C7.24751 6.39559 7.31352 6.42934 7.36303 6.54069C7.41913 6.66554 7.47194 6.79377 7.52144 6.92199C7.56765 7.03672 7.53794 7.1312 7.41913 7.18519C7.29702 7.24256 7.17161 7.28642 7.04289 7.32354C6.55445 7.46189 6.0627 7.46526 5.57755 7.30667C4.99009 7.11096 4.59735 6.70266 4.36633 6.12565C4.32879 6.03518 4.30215 5.94026 4.27578 5.84631L4.25742 5.78146H3.79538C3.71947 5.78146 3.65676 5.71735 3.65676 5.63974V5.32592H3.66006ZM15.3663 10.239H14.8977C14.5874 9.26717 13.9835 8.41008 13.1749 7.74196C13.1749 7.71159 13.1683 7.67785 13.1617 7.64748C12.9934 7.0401 13.2013 6.48333 13.4455 6.08515C13.6171 5.80846 13.396 5.4474 13.0759 5.48789C12.3597 5.579 11.868 5.84895 11.528 6.14927C11.2937 6.35848 11.1287 6.63517 11.0561 6.94224C10.5445 9.11195 8.63365 10.7283 6.34983 10.7283C5.24422 10.7283 4.22442 10.347 3.40924 9.70921C3.12871 10.3368 2.9736 11.0185 2.9736 11.7372C2.9736 12.1252 3.0198 12.5032 3.10561 12.8676C3.10561 12.8676 3.10561 12.8744 3.10891 12.8845C3.19802 13.2624 3.33333 13.6268 3.50825 13.971C3.73597 14.4772 4.0726 15.0677 4.52805 15.5502C5.19141 16.2487 5.30362 17.1125 5.32013 17.4837V17.6457V17.6659V17.6693C5.33333 17.8515 5.48184 18 5.66336 18H7.76896C7.96038 18 8.1155 17.8414 8.1155 17.6457V17.1125C8.41913 17.153 8.73266 17.1767 9.04949 17.1767C9.29702 17.1767 9.54124 17.1632 9.78216 17.1362V17.6423C9.78216 17.838 9.93728 17.9966 10.1287 17.9966H12.2343C12.4257 17.9966 12.5808 17.838 12.5808 17.6423V17.1092C12.5841 16.9337 12.6435 16.2285 13.2937 15.6278L13.2937 15.6278C13.3168 15.6076 13.3399 15.5873 13.363 15.5637C13.365 15.5617 13.3669 15.56 13.3689 15.5584C13.3702 15.5573 13.3716 15.5563 13.3729 15.5553C13.3747 15.5539 13.3765 15.5526 13.3783 15.5511C13.3798 15.5498 13.3813 15.5484 13.3828 15.5468C14.1056 14.8888 14.6435 14.0655 14.9208 13.1477H15.363C15.7161 13.1477 16 12.8541 16 12.4964V10.8869C16.0033 10.5326 15.7194 10.239 15.3663 10.239ZM12.736 10.3537C12.4488 10.3537 12.2145 10.1141 12.2145 9.82056C12.2145 9.52699 12.4488 9.28742 12.736 9.28742C13.0231 9.28742 13.2574 9.52699 13.2574 9.82056C13.2574 10.1141 13.0231 10.3537 12.736 10.3537Z" fill="#2B869E"/>
</svg>
