<svg width="14" height="14" viewBox="0 0 14 14" fill="none" xmlns="http://www.w3.org/2000/svg">
<path fill-rule="evenodd" clip-rule="evenodd" d="M14 7C14 10.8678 10.8678 14 7 14C3.13793 14 0.00574713 10.8621 0 7C0 3.13218 3.13218 0 7 0C10.8678 0 14 3.13218 14 7ZM3.13218 7.12644C3 7.12644 2.8908 7.23563 2.8908 7.36782H2.88506V7.9023C2.88506 8.03448 2.99425 8.14368 3.12644 8.14368H3.93103C3.94181 8.18033 3.95239 8.21719 3.963 8.25413C4.00892 8.41414 4.05532 8.5758 4.12069 8.72989C4.52299 9.71264 5.2069 10.408 6.22989 10.7414C7.07471 11.0115 7.93103 11.0057 8.78161 10.7701C9.00575 10.7069 9.22414 10.6322 9.43678 10.5345C9.64368 10.4425 9.6954 10.2816 9.61494 10.0862C9.52874 9.86782 9.43678 9.64943 9.33908 9.43678C9.25287 9.24713 9.13793 9.18966 8.93103 9.23563C8.79885 9.26437 8.66811 9.29885 8.53736 9.33333C8.40661 9.36782 8.27586 9.4023 8.14368 9.43103C7.63218 9.53448 7.12069 9.54598 6.61494 9.38506C5.98276 9.18966 5.64368 8.72989 5.43678 8.13793H7.15517C7.28736 8.13793 7.39655 8.02874 7.39655 7.89655V7.35632C7.39655 7.22414 7.28736 7.11494 7.15517 7.11494H5.27586V6.67241H7.15517C7.28736 6.67241 7.39655 6.56322 7.39655 6.43103V5.8908C7.39655 5.75862 7.28736 5.64943 7.15517 5.64943H5.51149V5.63218C5.71264 5.18391 6 4.82759 6.47126 4.63793C7.02299 4.41954 7.58621 4.42529 8.14943 4.54023C8.31432 4.57181 8.47493 4.61409 8.63648 4.65662C8.73958 4.68376 8.84305 4.71101 8.94828 4.73563C9.13793 4.78161 9.25287 4.72414 9.33908 4.54023C9.43678 4.33333 9.52874 4.11494 9.61494 3.9023C9.70115 3.70115 9.64943 3.56322 9.45977 3.44828C9.45075 3.44377 9.44151 3.43904 9.4321 3.43422C9.3935 3.41446 9.35192 3.39317 9.31034 3.37931C8.51724 3.07471 7.70115 2.95402 6.85632 3.09195C6.26437 3.18966 5.7069 3.3908 5.22989 3.76437C4.62644 4.23563 4.23563 4.85057 4.00575 5.57471L3.97701 5.66092H3.13218C3 5.66092 2.8908 5.77011 2.8908 5.9023V6.44253C2.8908 6.57471 3 6.68391 3.13218 6.68391H3.79885V7.12644H3.13218Z" fill="#2B869E"/>
</svg>
