<svg width="63" height="15" viewBox="0 0 63 15" fill="none" xmlns="http://www.w3.org/2000/svg">
<path fill-rule="evenodd" clip-rule="evenodd" d="M6.15561 1C8.04476 1 9 1.83623 9 2.69266C9 3.1498 8.75505 3.44956 8.20044 3.44956C7.53426 3.44956 7.48873 2.89237 6.71126 2.89237C6.04538 2.89237 5.53316 3.84751 5.75572 5.67902H6.08874C6.93308 5.67902 7.42193 6.05871 7.42193 6.63597C7.42193 7.13391 7.11123 7.57138 6.11225 7.57138H6.08874V13.2064C6.64484 13.2064 7.11123 13.5856 7.11123 14.1628C7.11123 14.6008 6.88792 14.8599 6.75605 15H0.512364C0.377575 14.8599 0.15606 14.6008 0.15606 14.1628C0.15606 13.5856 0.643795 13.2064 1.19915 13.2064V7.57138H1.13444C0.267713 7.57138 0 7.05425 0 6.63597C0 6.05871 0.488855 5.67902 1.19915 5.67902H1.35484C1.73316 3.07235 2.6887 1 6.15561 1Z" fill="white"/>
<path fill-rule="evenodd" clip-rule="evenodd" d="M13.3032 10.1642C12.673 10.1642 12.2163 10.8545 12.2163 11.5874C12.2163 12.3585 12.673 13.0096 13.2604 13.0096C13.8251 13.0096 14.2826 12.6232 14.2826 11.9712V10.3859C13.9991 10.2435 13.6732 10.1642 13.3032 10.1642ZM20 13.9642C20 14.4113 19.7819 14.6757 19.6508 14.8188H14.3688V13.8835H14.3479C13.8043 14.5539 12.5864 15 11.2817 15C8.71711 15 7 13.8221 7 11.8093C7 10.061 8.56443 8.63772 11.7168 8.63772C12.7595 8.63772 13.5866 8.76101 14.2377 8.96397V8.76101C14.2377 7.33708 13.7598 6.76834 13.0217 6.76834C11.8691 6.76834 10.5858 7.92698 9.56468 7.92698C8.91184 7.92698 8.6722 7.60216 8.6722 7.15562C8.6722 6.22035 10.7381 5 13.1515 5C15.2818 5 18.8265 5.28515 18.9131 9.61463L18.9788 12.9881H18.9997C19.5429 12.9881 20 13.375 20 13.9642Z" fill="white"/>
<path fill-rule="evenodd" clip-rule="evenodd" d="M35.6669 5.04352C35.7926 5.19265 36 5.46789 36 5.93736C36 6.57446 35.5844 6.93732 34.8163 6.95768C34.7113 7.214 34.2964 8.21403 33.8807 9.36211L31.8847 15H29.0993L27.3129 10.6388H27.2918L25.6507 15H22.8447L19.9343 6.95768C19.4366 6.93732 19 6.53195 19 5.93736C19 5.46789 19.2061 5.19265 19.3318 5.04352H25.2968C25.4422 5.19265 25.6284 5.46789 25.6284 5.93736C25.6284 6.5108 25.2344 6.89573 24.7566 6.93732L25.8368 9.89446H25.8994L27.6237 5.02108H29.9103L31.9053 9.89446H31.9682L32.6125 7.93656C32.821 7.32032 32.8839 7.10681 32.9244 6.91624C32.2794 6.91624 31.8425 6.53195 31.8425 5.89477C31.8425 5.42674 32.051 5.14906 32.1763 5H35.6875L35.6669 5.04352Z" fill="white"/>
<path fill-rule="evenodd" clip-rule="evenodd" d="M50 14.115C50 14.578 49.7966 14.8518 49.6749 15H44.5841V9.08396C44.5841 7.71435 44.0569 7.19031 43.4693 7.19031C42.8812 7.19031 42.4143 7.71435 42.4143 8.89434V13.104C42.9431 13.104 43.3688 13.5047 43.3688 14.115C43.3688 14.578 43.1657 14.8518 43.0433 15H37.3254C37.2031 14.8518 37 14.578 37 14.115C37 13.5047 37.4451 13.104 37.9526 13.104V7.04283C37.4451 7.04283 37 6.64167 37 6.03216C37 5.56907 37.2031 5.29426 37.3254 5.14677H42.4143V6.19951H42.4357C43.0041 5.67548 43.773 5 45.3355 5C47.2212 5 49.0455 6.13751 49.0455 8.76913V13.104C49.5526 13.104 50 13.5047 50 14.115Z" fill="white"/>
<path fill-rule="evenodd" clip-rule="evenodd" d="M56.3038 10.1642C55.6736 10.1642 55.2169 10.8545 55.2169 11.5874C55.2169 12.3585 55.6736 13.0096 56.2622 13.0096C56.8262 13.0096 57.2825 12.6232 57.2825 11.9712V10.3859C56.9994 10.2435 56.6738 10.1642 56.3038 10.1642ZM63 13.9642C63 14.4113 62.7826 14.6757 62.6511 14.8188H57.3695V13.8835H57.3478C56.8046 14.5539 55.587 15 54.2824 15C51.717 15 50 13.8221 50 11.8093C50 10.061 51.5653 8.63772 54.7178 8.63772C55.7605 8.63772 56.5866 8.76101 57.238 8.96397V8.76101C57.238 7.33708 56.7608 6.76834 56.0221 6.76834C54.8702 6.76834 53.5865 7.92698 52.5645 7.92698C51.9119 7.92698 51.6732 7.60216 51.6732 7.15562C51.6732 6.22035 53.7391 5 56.1515 5C58.2828 5 61.8265 5.28515 61.9131 9.61463L61.9789 12.9881H62.0004C62.5433 12.9881 63 13.375 63 13.9642Z" fill="white"/>
</svg>
