<svg width="46" height="39" viewBox="0 0 46 39" fill="none" xmlns="http://www.w3.org/2000/svg">
<path fill-rule="evenodd" clip-rule="evenodd" d="M44.2027 18.9253C44.1136 18.6946 43.9298 18.5108 43.6956 18.4186L34.8833 14.9464C34.599 12.2398 32.4374 10.0684 29.6948 9.69815L29.1833 3.94343C29.1522 3.59406 28.9122 3.29583 28.5719 3.18391C28.2314 3.0719 27.8557 3.16755 27.6145 3.42725L24.2829 7.01602L22.476 0.839592C22.3684 0.471885 22.0303 0.213746 21.639 0.200418C21.2491 0.18807 20.8921 0.421708 20.7585 0.781378L15.0508 16.1597C15.3654 16.6296 15.6685 17.1465 15.9611 17.6455C16.5365 18.6268 17.0715 19.5392 17.5742 19.8895C17.6431 19.9375 17.7698 20.014 17.9411 20.1175C19.0303 20.7751 21.9262 22.5238 23.2922 24.9964C24.3415 26.8958 24.5636 32.0676 24.5636 32.0676L26.1465 34.0593L28.123 34.3251C28.1642 34.3305 28.2053 34.3333 28.2463 34.3333C28.4627 34.3333 28.6736 34.2572 28.8389 34.1167C29.0356 33.9496 29.1487 33.7077 29.1493 33.4532L29.1635 27.1565C30.0216 27.3185 30.8896 27.4005 31.7528 27.4005C34.2905 27.4005 36.7742 26.6931 38.9355 25.3547C41.1272 23.9974 42.9352 22.0189 44.1643 19.6328C44.278 19.4126 44.2918 19.156 44.2027 18.9253ZM30.3854 17.4837C29.5657 17.4837 28.8989 16.8324 28.8989 16.032C28.8989 15.2315 29.5657 14.5802 30.3854 14.5802C31.205 14.5802 31.8718 15.2315 31.8718 16.032C31.8718 16.8325 31.205 17.4837 30.3854 17.4837Z" fill="#2B869E"/>
<path fill-rule="evenodd" clip-rule="evenodd" d="M6.36831 34.5971C7.20106 36.0681 7.09989 38.5999 7.09989 38.5999L25.4733 36.4534L23.1181 33.4897C23.1181 33.4897 22.8959 28.318 21.8466 26.4186C20.4806 23.946 17.5847 22.1973 16.4955 21.5396C16.3242 21.4362 16.1976 21.3597 16.1286 21.3117C15.626 20.9614 15.091 20.049 14.5156 19.0677C13.6423 17.5785 12.676 15.9305 11.5881 15.847C10.5142 15.7646 10.5323 17.6392 10.5491 19.3746C10.5605 20.5558 10.5713 21.6724 10.2367 22.0636C9.92723 22.4254 9.47085 22.516 8.8984 22.6296C7.94272 22.8194 6.66354 23.0733 5.2042 24.7606C3.40037 26.8461 3.2377 26.8848 2.56712 27.0441C2.37022 27.0909 2.12952 27.1481 1.79061 27.2705C0.29755 27.8101 1.07215 31.1675 2.79988 32.5287C3.59007 33.1513 4.2297 33.3294 4.77087 33.48C5.41295 33.6587 5.91643 33.7989 6.36831 34.5971ZM9.57656 27.2221C9.57656 28.0076 8.92954 28.6444 8.1314 28.6444C7.33326 28.6444 6.68624 28.0076 6.68624 27.2221C6.68624 26.4367 7.33326 25.7999 8.1314 25.7999C8.92954 25.7999 9.57656 26.4367 9.57656 27.2221Z" fill="#2B869E"/>
</svg>
