<svg width="28" height="37" viewBox="0 0 28 37" fill="none" xmlns="http://www.w3.org/2000/svg">
<path fill-rule="evenodd" clip-rule="evenodd" d="M25.9932 14.2355L27.8123 16.7101C27.9797 16.9371 27.9112 17.2549 27.6677 17.376L24.9733 18.8592C24.8059 18.9501 24.707 19.1468 24.745 19.3436L25.3006 22.3554C25.3463 22.6279 25.1484 22.8852 24.8668 22.9003L21.7919 23.0744C21.594 23.0895 21.4266 23.2257 21.3733 23.4149L20.5589 26.3662C20.4828 26.6311 20.1936 26.7749 19.9348 26.6689L17.0883 25.5035C16.9056 25.4279 16.6925 25.4733 16.5631 25.6246L14.5386 27.9327C14.3483 28.1446 14.0286 28.1446 13.8384 27.9403L11.7834 25.6625C11.6464 25.5187 11.4333 25.4733 11.2506 25.5489L8.41929 26.7597C8.16052 26.8733 7.86369 26.7295 7.78758 26.4646L6.92753 23.5208C6.87425 23.3317 6.69919 23.1954 6.50131 23.1879L3.42644 23.0592C3.14483 23.0517 2.93933 22.7944 2.985 22.5219L3.49494 19.5025C3.53299 19.3057 3.43405 19.109 3.259 19.0182L0.541847 17.5728C0.298293 17.4441 0.222183 17.1263 0.382015 16.8993L2.163 14.402C2.27717 14.2431 2.26956 14.0236 2.15539 13.8647L0.336349 11.3901C0.176517 11.1706 0.245016 10.8528 0.48857 10.7166L3.18288 9.23335C3.35033 9.14254 3.44927 8.94578 3.41122 8.74902L2.85561 5.73715C2.80994 5.46472 3.00783 5.20742 3.28944 5.19229L6.36431 5.01823C6.56219 5.0031 6.72964 4.86688 6.78292 4.67769L7.5973 1.72636C7.67341 1.46149 7.96263 1.31771 8.22141 1.42365L11.0679 2.58905C11.2506 2.66473 11.4637 2.61932 11.5931 2.46797L13.6176 0.159877C13.8079 -0.0520139 14.1276 -0.0520139 14.3179 0.152309L16.3729 2.43014C16.5098 2.57392 16.723 2.61932 16.9056 2.54365L19.7369 1.33284C19.9957 1.21933 20.2925 1.36311 20.3687 1.62798L21.2211 4.57932C21.2744 4.7685 21.4494 4.90472 21.6473 4.91229L24.7222 5.04093C25.0038 5.0485 25.2093 5.3058 25.1636 5.57823L24.6537 8.59767C24.6156 8.79443 24.7146 8.99119 24.8896 9.082L27.6068 10.5274C27.8503 10.656 27.9264 10.9739 27.7666 11.2009L25.9856 13.6982C25.8715 13.8571 25.8791 14.0766 25.9932 14.2355ZM5.72498 14.0539C5.72498 18.6322 9.47723 22.363 14.0819 22.363C18.6866 22.363 22.4389 18.6398 22.4389 14.0539C22.4389 9.47551 18.6866 5.74471 14.0819 5.74471C9.47723 5.74471 5.72498 9.47551 5.72498 14.0539Z" fill="#2B869E"/>
<path d="M21.4428 27.75C21.0059 28.1953 20.3956 28.4594 19.7402 28.4594C19.5066 28.4594 19.2731 28.4217 19.0546 28.3613L17.1109 27.7726L15.6116 29.1461C15.5589 29.1914 15.5137 29.2367 15.4609 29.2744L17.8718 36.7607C17.9546 37.0249 18.2937 37.0853 18.4669 36.8664L20.2223 34.6099C20.3052 34.4967 20.4559 34.4515 20.584 34.4892L23.3187 35.2891C23.5824 35.3646 23.8235 35.1156 23.7406 34.859L21.4428 27.75Z" fill="#2B869E"/>
<path d="M10.6991 27.7726L8.75538 28.3608C8.52937 28.4286 8.30335 28.4588 8.0698 28.4588C7.41436 28.4588 6.81165 28.1949 6.36715 27.75L4.06933 34.8607C3.98646 35.1246 4.22754 35.3659 4.49122 35.2905L7.22601 34.4912C7.36162 34.4535 7.50476 34.4988 7.58764 34.6119L9.34302 36.8665C9.50877 37.0852 9.85533 37.0249 9.9382 36.7609L12.349 29.2807C12.2963 29.243 12.2436 29.1978 12.1984 29.1525L10.6991 27.7726Z" fill="#2B869E"/>
<path d="M18.9998 12.1143L15.8679 11.8868L14.6877 8.97437C14.4683 8.4283 13.6891 8.4283 13.4697 8.97437L12.2896 11.8868L9.15764 12.1143C8.56756 12.1598 8.33305 12.8955 8.77939 13.2747L11.1775 15.3073L10.4286 18.3638C10.2848 18.9402 10.9127 19.3952 11.412 19.0843L14.0749 17.4233L16.7379 19.0843C17.2372 19.3952 17.8651 18.9402 17.7213 18.3638L16.9724 15.3073L19.3705 13.2747C19.8244 12.8955 19.5899 12.1598 18.9998 12.1143Z" fill="#2B869E"/>
</svg>
