<svg width="36" height="30" viewBox="0 0 36 30" fill="none" xmlns="http://www.w3.org/2000/svg">
<path fill-rule="evenodd" clip-rule="evenodd" d="M4.89691 0C2.19242 0 0 2.19242 0 4.8969V19.0085C0 21.713 2.19241 23.9054 4.8969 23.9054H12.149C12.469 23.9054 12.7687 24.0617 12.9519 24.324L16.327 29.1567C17.1248 30.2991 18.8267 30.2666 19.5804 29.0946L22.6281 24.355C22.8083 24.0748 23.1186 23.9054 23.4518 23.9054H31.1031C33.8076 23.9054 36 21.713 36 19.0085V4.89691C36 2.19242 33.8076 0 31.1031 0H4.89691ZM11.1149 10.8209C11.7523 10.3155 12.676 10.426 13.178 11.0677L16.2115 14.9456L23.3033 6.90598C23.8421 6.29522 24.7706 6.2398 25.3772 6.7822C25.9839 7.3246 26.0389 8.25941 25.5002 8.87017L17.2423 18.2317C16.6346 18.9207 15.556 18.8886 14.9898 18.1647L10.8697 12.8979C10.3677 12.2562 10.4775 11.3263 11.1149 10.8209Z" fill="#2B869E"/>
</svg>
