<svg width="38" height="29" viewBox="0 0 38 29" fill="none" xmlns="http://www.w3.org/2000/svg">
<path d="M18.8603 0H7.25396C3.24774 0 0 3.16014 0 7.05829V15.5282C0 18.9375 2.49643 21.7884 5.80317 22.4445V26.8213C5.80317 28.0789 7.36586 28.7088 8.27986 27.8195L13.6579 22.5865H18.8603C22.8665 22.5865 26.1143 19.4264 26.1143 15.5282V7.05829C26.1143 3.16014 22.8665 0 18.8603 0Z" fill="#2B869E"/>
<path d="M30.4668 2.82336H27.9974C28.6314 4.11202 29.016 5.53704 29.016 7.05834V15.5283C29.016 18.7614 27.3888 21.6108 24.9141 23.4148L29.4409 27.8195C30.3549 28.7089 31.9176 28.079 31.9176 26.8214V22.4446C35.2244 21.7883 37.7208 18.9374 37.7208 15.5283V9.88166C37.7208 5.9835 34.473 2.82336 30.4668 2.82336Z" fill="#2B869E"/>
</svg>
