<svg width="24" height="24" viewBox="0 0 24 24" fill="none" xmlns="http://www.w3.org/2000/svg">
<path fill-rule="evenodd" clip-rule="evenodd" d="M13.0295 6.9861C13.0295 8.08346 13.9236 8.97675 15.0221 8.97675C16.1205 8.97675 17.0146 8.08346 17.0146 6.9861C17.0146 5.83429 16.1031 4 15.0221 4C13.941 4 13.0295 5.83429 13.0295 6.9861ZM6.98538 10.9674C6.98538 9.81559 6.07358 7.9813 4.99256 7.9813C3.9118 7.9813 3 9.81559 3 10.9674C3 12.0648 3.89415 12.9581 4.99256 12.9581C6.09123 12.9581 6.98538 12.0648 6.98538 10.9674ZM17.6373 16.2535C16.9126 15.7305 16.4893 15.1344 16.3414 14.5668C15.7927 12.4478 13.9545 10.9674 11.9666 10.9674C9.97902 10.9674 8.20734 12.4478 7.65865 14.5678C7.51071 15.1336 7.08738 15.7305 6.36246 16.2545C5.47999 16.8932 5.07639 17.8806 5.30895 18.8333C5.58848 19.9789 6.86209 20.9979 8.60419 20.9979C9.34079 20.9979 10.0403 20.8094 10.6261 20.4526C11.0151 20.2143 11.4782 20.088 11.9648 20.088C12.4512 20.088 12.9797 20.2135 13.3739 20.4516C13.9615 20.8102 14.6571 21 15.387 21C17.128 21 18.4094 19.9859 18.6911 18.8333C18.9236 17.8806 18.519 16.8922 17.6373 16.2535ZM17.0146 10.9674C17.0146 9.81559 17.9264 7.9813 19.0072 7.9813C20.0882 7.9813 21 9.81559 21 10.9674C21 12.0648 20.1059 12.9581 19.0072 12.9581C17.9088 12.9581 17.0146 12.0648 17.0146 10.9674ZM8.97794 8.97675C7.87953 8.97675 6.98538 8.08346 6.98538 6.9861C6.98538 5.83429 7.89692 4 8.97794 4C10.0587 4 10.9705 5.83429 10.9705 6.9861C10.9705 8.08346 10.0764 8.97675 8.97794 8.97675Z" fill="#F6AC40"/>
</svg>
