<svg width="40" height="40" viewBox="0 0 40 40" fill="none" xmlns="http://www.w3.org/2000/svg">
<path opacity="0.1" fill-rule="evenodd" clip-rule="evenodd" d="M20 40C31.0457 40 40 31.0457 40 20C40 8.9543 31.0457 0 20 0C8.9543 0 0 8.9543 0 20C0 31.0457 8.9543 40 20 40Z" fill="#2B869E"/>
<path fill-rule="evenodd" clip-rule="evenodd" d="M20.6947 11.0025C20.6947 11.3728 20.3808 11.6691 20 11.6691C19.6192 11.6691 19.3053 11.3728 19.3053 11.0025V8.66667C19.3053 8.2963 19.6141 8 20 8C20.3859 8 20.6947 8.30123 20.6947 8.66667V11.0025ZM24.4305 23.6247C25.5009 22.563 26.1595 21.116 26.1595 19.521C26.1595 16.242 23.3808 13.5852 19.9588 13.6099C16.5317 13.6346 13.8045 16.2963 13.8405 19.5852C13.8559 21.1506 14.5094 22.5728 15.5592 23.6198C16.3722 24.4247 16.9022 25.4716 17.0823 26.5728C17.1544 27.0469 17.5866 27.3926 18.0858 27.3926H21.9091C22.4134 27.3926 22.8405 27.042 22.9177 26.5679C23.0926 25.4667 23.6175 24.4346 24.4305 23.6247ZM22.8508 29.6741V28.9728C22.8508 28.5975 22.5369 28.2963 22.1458 28.2914H17.8491C17.458 28.2914 17.1441 28.5926 17.1441 28.9679V29.6691C17.1441 30.2321 17.5712 30.6914 18.1321 30.7753L18.307 31.4123C18.4048 31.758 18.729 32 19.1046 32H20.8902C21.2659 32 21.5901 31.758 21.6878 31.4123L21.8679 30.7753C22.4237 30.6963 22.8508 30.2321 22.8508 29.6741ZM20.6947 15.9407C20.6947 15.5753 20.3859 15.2741 20 15.2741C17.5506 15.2741 15.554 17.1852 15.554 19.5407C15.554 19.9062 15.8628 20.2074 16.2487 20.2074C16.6295 20.2074 16.9434 19.9111 16.9434 19.5407C16.9434 17.921 18.3173 16.6074 20 16.6074C20.3859 16.6074 20.6947 16.3111 20.6947 15.9407ZM11.8233 19.516C11.8233 19.1506 11.5146 18.8494 11.1286 18.8494H8.69468C8.31389 18.8494 8 19.1457 8 19.516C8 19.8815 8.30875 20.1827 8.69468 20.1827H11.1286C11.5146 20.1827 11.8233 19.8864 11.8233 19.516ZM28.8714 18.8494H31.3053C31.6913 18.8494 32 19.1506 32 19.516C32 19.8864 31.6861 20.1827 31.3053 20.1827H28.8714C28.4854 20.1827 28.1767 19.8815 28.1767 19.516C28.1767 19.1457 28.4906 18.8494 28.8714 18.8494ZM13.2384 25.0667L11.5146 26.721C11.2419 26.9827 11.2419 27.4025 11.5146 27.6642C11.6484 27.7926 11.8285 27.8568 12.0034 27.8568C12.1784 27.8568 12.3585 27.7926 12.4923 27.6642L14.2161 26.0099C14.4889 25.7481 14.4889 25.3284 14.2161 25.0667C13.9485 24.8049 13.506 24.8049 13.2384 25.0667ZM26.7616 13.9704C26.6278 14.0988 26.4477 14.163 26.2727 14.163C26.0926 14.163 25.9177 14.0988 25.7787 13.9704C25.506 13.7086 25.506 13.2889 25.7787 13.0272L27.5026 11.3728C27.7753 11.1111 28.2127 11.1111 28.4854 11.3728C28.7581 11.6346 28.7581 12.0543 28.4854 12.316L26.7616 13.9704ZM13.2384 13.9654C13.3722 14.0938 13.5523 14.158 13.7273 14.158C13.9022 14.158 14.0823 14.0938 14.2161 13.9654C14.4889 13.7037 14.4889 13.284 14.2161 13.0222L12.4923 11.3679C12.2196 11.1062 11.7822 11.1062 11.5094 11.3679C11.2367 11.6296 11.2367 12.0494 11.5094 12.3111L13.2384 13.9654ZM25.7787 25.0667C26.0515 24.8049 26.4888 24.8049 26.7616 25.0667L28.4803 26.721C28.753 26.9827 28.753 27.4025 28.4803 27.6642C28.3465 27.7926 28.1664 27.8568 27.9914 27.8568C27.8165 27.8568 27.6364 27.7926 27.5026 27.6642L25.7787 26.0099C25.506 25.7481 25.506 25.3284 25.7787 25.0667Z" fill="#2B869E"/>
</svg>
