<svg width="29" height="29" viewBox="0 0 29 29" fill="none" xmlns="http://www.w3.org/2000/svg">
<path fill-rule="evenodd" clip-rule="evenodd" d="M21.5319 0.258911H24.9868C25.456 0.258911 25.8364 0.629826 25.8364 1.08748C25.8364 5.19927 22.381 8.54463 18.1336 8.54463H16.1123L20.304 5.09117C20.6945 4.83742 20.7998 4.32301 20.5396 3.94217C20.2794 3.56133 19.7518 3.45841 19.3615 3.71237L14.7353 7.60558L10.1091 3.71237C9.71887 3.45862 9.19121 3.56133 8.93103 3.94217C8.67063 4.32279 8.77616 4.83742 9.16665 5.09117L13.3583 8.54463H11.337C7.12105 8.54463 3.69091 5.19927 3.69091 1.08748C3.69091 0.629826 4.07122 0.258911 4.54048 0.258911H7.93876C10.8941 0.258911 13.463 1.90268 14.7353 4.30165C16.0077 1.90268 18.5765 0.258911 21.5319 0.258911ZM1.69481 8.54463C0.75869 8.54463 0 9.30887 0 10.2518V12.8696C0 13.3411 0.379345 13.7232 0.847403 13.7232H11.0727V10.2518C9.08508 10.2518 7.24463 9.61675 5.73012 8.54463H1.69481ZM23.2699 8.54463H27.3052C28.2413 8.54463 29 9.30887 29 10.2518V12.8696C29 13.3411 28.6207 13.7232 28.1526 13.7232H17.9273V10.2518C19.9149 10.2518 21.7554 9.61675 23.2699 8.54463ZM12.6545 28.7411V10.0982H16.3455V28.7411H12.6545ZM4.15465 28.2232C2.73379 28.2232 1.58182 27.0975 1.58182 25.7091V14.7589H11.0727V28.2232H4.15465ZM17.9273 28.2232H24.8453C26.2662 28.2232 27.4182 27.0975 27.4182 25.7091V14.7589H17.9273V28.2232Z" fill="#2B869E"/>
</svg>
