<svg width="33" height="20" viewBox="0 0 33 20" fill="none" xmlns="http://www.w3.org/2000/svg">
<path fill-rule="evenodd" clip-rule="evenodd" d="M6 0H24V3H28L33 10V16H31C31 18.2091 29.2091 20 27 20C24.7909 20 23 18.2091 23 16H17C17 18.2091 15.2091 20 13 20C10.7909 20 9 18.2091 9 16H6V13H3C2.44772 13 2 12.5523 2 12C2 11.4477 2.44772 11 3 11H4H6C6.55228 11 7 10.5523 7 10C7 9.44771 6.55228 9 6 9C5.44772 9 5 8.55229 5 8C5 7.44772 5.44772 7 6 7H7C7.55228 7 8 6.55228 8 6C8 5.44772 7.55228 5 7 5H6H5C4.44772 5 4 4.55228 4 4C4 3.44772 4.44772 3 5 3H6V0ZM11 16C11 17.1046 11.8954 18 13 18C14.1046 18 15 17.1046 15 16H11ZM27 18C28.1046 18 29 17.1046 29 16H25C25 17.1046 25.8954 18 27 18ZM24 10V5H27L30.4866 10H24ZM0 8C0 7.44772 0.447715 7 1 7H3C3.55228 7 4 7.44772 4 8C4 8.55229 3.55228 9 3 9H1C0.447715 9 0 8.55229 0 8ZM9.1 5.74L10.58 5.75C10.54 5.62 10.52 5.48 10.52 5.35C10.52 4.81 10.82 4.39 11.43 4.39C12.01 4.39 12.3 4.75 12.3 5.16C12.3 5.59 12.1 5.86 11.59 6.16L10.53 6.78C9.34 7.47 9 8.45 9 9.64H13.93V8.32H10.93C11.02 8.13 11.18 8 11.37 7.88L12.6 7.15C13.43 6.66 13.88 5.97 13.88 5.13C13.88 3.97 12.96 3 11.47 3C9.91 3 9.04 4.04 9.04 5.2C9.04 5.4 9.07 5.66 9.1 5.74ZM15.51 6.69V8.29H18.51V9.64H20.09V8.29H21.13V6.97H20.09V3.15H18.21L15.51 6.69ZM18.51 6.97V4.83L16.88 6.97H18.51Z" fill="#FCAFA2"/>
</svg>
