<svg width="24" height="23" viewBox="0 0 24 23" fill="none" xmlns="http://www.w3.org/2000/svg">
<path fill-rule="evenodd" clip-rule="evenodd" d="M17.6836 0.00048001C15.1097 0.00048001 12.8969 1.60467 11.9282 3.90056C10.9596 1.60467 8.89074 0 6.31645 0C2.84934 0 0.352328 2.96598 0.0384018 6.50077C0.0384018 6.50077 -0.116382 7.30231 0.195553 8.75244H3.43381L6.14251 4.23794C6.58943 3.49306 7.70822 3.63306 7.95783 4.46509L10.3073 12.2966L12.1425 9.23794C12.3232 8.93674 12.6487 8.75244 13 8.75244H23.8046C24.1163 7.30262 23.9616 6.50125 23.9616 6.50125C23.6477 2.96646 21.1507 0.00048001 17.6836 0.00048001ZM23.1551 10.7524H13.5662L10.8575 15.2669C10.4106 16.0118 9.29178 15.8718 9.04217 15.0398L6.69271 7.20824L4.85749 10.2669C4.67677 10.5681 4.35126 10.7524 4 10.7524H0.845112C1.47205 12.1732 2.4072 13.4413 3.55303 14.4795L11.9282 22.0804L20.447 14.48C21.5929 13.4413 22.5281 12.1732 23.1551 10.7524Z" fill="#FCAFA2"/>
</svg>
