<svg width="28" height="21" viewBox="0 0 28 21" fill="none" xmlns="http://www.w3.org/2000/svg">
<path fill-rule="evenodd" clip-rule="evenodd" d="M6.05894 0.714294H14.0001C16.7412 0.714294 18.9634 2.8937 18.9634 5.58208V11.4234C18.9634 14.1118 16.7412 16.2912 14.0001 16.2912H10.4405L6.76087 19.9001C6.1355 20.5135 5.06629 20.0791 5.06629 19.2118V16.1933C2.80378 15.7408 1.0957 13.7746 1.0957 11.4234V5.58208C1.0957 2.8937 3.31784 0.714294 6.05894 0.714294ZM9.73868 10.1646L13.7093 6.27039C14.0971 5.89012 14.0971 5.27398 13.7093 4.89371C13.3216 4.51344 12.6934 4.51344 12.3057 4.89371L9.03688 8.09964L7.75339 6.84083C7.36566 6.46056 6.73745 6.46056 6.34972 6.84083C5.96199 7.2211 5.96199 7.83723 6.34972 8.2175L8.33501 10.1646C8.72261 10.5448 9.35109 10.5448 9.73868 10.1646Z" fill="#FCAFA2"/>
<path d="M21.9418 2.66144H20.2522C20.686 3.55017 20.9492 4.53294 20.9492 5.58211V11.4235C20.9492 13.6532 19.8358 15.6183 18.1426 16.8624L21.2399 19.9002C21.8653 20.5135 22.9345 20.0791 22.9345 19.2118V16.1933C25.197 15.7407 26.9051 13.7746 26.9051 11.4235V7.52923C26.9051 4.84084 24.6829 2.66144 21.9418 2.66144Z" fill="#FCAFA2"/>
</svg>
