<svg width="23" height="15" viewBox="0 0 23 15" fill="none" xmlns="http://www.w3.org/2000/svg">
<path fill-rule="evenodd" clip-rule="evenodd" d="M3.44515 0.15625H16.2193V2.25625H19.0581L22.6064 7.15625V11.3563L21.1871 11.3562C21.1871 12.9026 19.9162 14.1562 18.3484 14.1562C16.7806 14.1562 15.5097 12.9026 15.5097 11.3562H11.2516C11.2516 12.9026 9.98067 14.1562 8.4129 14.1562C6.84512 14.1562 5.57419 12.9026 5.57419 11.3562H3.44515V9.25625H1.30645C0.919846 9.25625 0.606445 8.94285 0.606445 8.55625C0.606445 8.16965 0.919846 7.85625 1.30645 7.85625H2.0153L2.01612 7.85625L3.44515 7.85625L3.45483 7.85625C3.84143 7.85625 4.15483 7.54285 4.15483 7.15625C4.15483 6.76965 3.84143 6.45625 3.45483 6.45625H3.44515H3.43548C3.04888 6.45625 2.73548 6.14285 2.73548 5.75625C2.73548 5.36965 3.04888 5.05625 3.43548 5.05625H3.44515H4.16451C4.55111 5.05625 4.86451 4.74285 4.86451 4.35625C4.86451 3.96965 4.55111 3.65625 4.16451 3.65625H3.44515H2.7258C2.3392 3.65625 2.0258 3.34285 2.0258 2.95625C2.0258 2.56965 2.3392 2.25625 2.7258 2.25625H3.44515V0.15625ZM6.99354 11.3562C6.99354 12.1294 7.62901 12.7562 8.4129 12.7562C9.19678 12.7562 9.83225 12.1294 9.83225 11.3563L6.99354 11.3562ZM18.3484 12.7562C19.1323 12.7562 19.7677 12.1294 19.7677 11.3562H16.929C16.929 12.1294 17.5645 12.7562 18.3484 12.7562ZM16.2193 7.15625V3.65625H18.3484L20.8227 7.15625H16.2193ZM0.606445 5.75625C0.606445 5.36965 0.919846 5.05625 1.30645 5.05625H1.3258C1.7124 5.05625 2.0258 5.36965 2.0258 5.75625C2.0258 6.14285 1.7124 6.45625 1.3258 6.45625H1.30645C0.919846 6.45625 0.606445 6.14285 0.606445 5.75625ZM5.64515 4.17425L6.69548 4.18125C6.66709 4.09025 6.6529 3.99225 6.6529 3.90125C6.6529 3.52325 6.8658 3.22925 7.2987 3.22925C7.71032 3.22925 7.91612 3.48125 7.91612 3.76825C7.91612 4.06925 7.77419 4.25825 7.41225 4.46825L6.65999 4.90225C5.81548 5.38525 5.57419 6.07125 5.57419 6.90425H9.0729V5.98025H6.94386C7.00774 5.84725 7.12128 5.75625 7.25612 5.67225L8.12903 5.16125C8.71806 4.81825 9.03741 4.33525 9.03741 3.74725C9.03741 2.93525 8.38451 2.25625 7.32709 2.25625C6.21999 2.25625 5.60257 2.98425 5.60257 3.79625C5.60257 3.93625 5.62386 4.11825 5.64515 4.17425ZM10.1942 4.83925V5.95925H12.3232V6.90425H13.4445V5.95925H14.1826V5.03525H13.4445V2.36125H12.1103L10.1942 4.83925ZM12.3232 5.03525V3.53725L11.1664 5.03525H12.3232Z" fill="#2B869E"/>
</svg>
