<svg width="21" height="17" viewBox="0 0 21 17" fill="none" xmlns="http://www.w3.org/2000/svg">
<path fill-rule="evenodd" clip-rule="evenodd" d="M18.9466 0.142822H5.22327C4.39988 0.142822 3.74116 0.810241 3.74116 1.60393V10.0098C3.74116 10.8215 4.41817 11.4709 5.22327 11.4709H14.6832L16.8241 13.5994C16.9155 13.6896 17.0253 13.7437 17.1534 13.7437C17.4096 13.7437 17.6292 13.5453 17.6292 13.2747V11.4709H18.9466C19.77 11.4709 20.4287 10.8035 20.4287 10.0098V1.60393C20.4287 0.792202 19.7517 0.142822 18.9466 0.142822ZM2.89946 10.0459V7.17777H1.39904C0.868409 7.17777 0.429263 7.61069 0.429263 8.1338V13.6535C0.410965 14.2127 0.850111 14.6456 1.39904 14.6456H2.25904V15.8362C2.25904 15.9985 2.40542 16.1428 2.5701 16.1428C2.66159 16.1428 2.73478 16.1067 2.78967 16.0526L4.1986 14.6637H10.4198C10.9505 14.6637 11.3896 14.2308 11.3896 13.7076V12.3367H5.22328C3.94243 12.3367 2.89946 11.3085 2.89946 10.0459ZM12.1387 7.22282H11.0587C11.0387 7.09282 11.0187 6.96282 11.0187 6.81282C11.0187 6.28282 11.2387 5.79282 11.8087 5.36282L12.2887 5.00282C12.5887 4.78282 12.7187 4.51282 12.7187 4.21282C12.7187 3.75282 12.3887 3.31282 11.7187 3.31282C11.0087 3.31282 10.6987 3.88282 10.6987 4.44282C10.6987 4.56282 10.7087 4.67282 10.7387 4.76282L9.47871 4.71282C9.43871 4.57282 9.42871 4.41282 9.42871 4.26282C9.42871 3.18282 10.2387 2.14282 11.7187 2.14282C13.2687 2.14282 14.0787 3.12282 14.0787 4.13282C14.0787 4.92282 13.6787 5.48282 13.0887 5.90282L12.6787 6.19282C12.3287 6.44282 12.1387 6.75282 12.1387 7.16282V7.22282ZM10.8287 8.67282C10.8287 8.23282 11.1787 7.87282 11.6187 7.87282C12.0587 7.87282 12.4187 8.23282 12.4187 8.67282C12.4187 9.11282 12.0587 9.46282 11.6187 9.46282C11.1787 9.46282 10.8287 9.11282 10.8287 8.67282Z" fill="#2B869E"/>
</svg>
