<svg width="21" height="17" viewBox="0 0 21 17" fill="none" xmlns="http://www.w3.org/2000/svg">
<path fill-rule="evenodd" clip-rule="evenodd" d="M18.9466 0.142822H5.22327C4.39988 0.142822 3.74116 0.810241 3.74116 1.60393V10.0098C3.74116 10.8215 4.41817 11.4709 5.22327 11.4709H14.6832L16.8241 13.5994C16.9155 13.6896 17.0253 13.7437 17.1534 13.7437C17.4096 13.7437 17.6292 13.5453 17.6292 13.2747V11.4709H18.9466C19.77 11.4709 20.4287 10.8035 20.4287 10.0098V1.60393C20.4287 0.792202 19.7517 0.142822 18.9466 0.142822ZM7.32752 7.37619C6.57731 7.37619 5.95518 6.76289 5.95518 6.02332C5.95518 5.28375 6.57731 4.67044 7.32752 4.67044C8.07772 4.67044 8.69985 5.28375 8.69985 6.02332C8.69985 6.76289 8.09602 7.37619 7.32752 7.37619ZM10.7675 6.02332C10.7675 6.76289 11.3896 7.37619 12.1398 7.37619C12.89 7.37619 13.5122 6.76289 13.5122 6.02332C13.5122 5.28375 12.89 4.67044 12.1398 4.67044C11.3896 4.67044 10.7675 5.28375 10.7675 6.02332ZM16.9338 7.37619C16.1836 7.37619 15.5615 6.76289 15.5615 6.02332C15.5615 5.28375 16.1836 4.67044 16.9338 4.67044C17.684 4.67044 18.3062 5.28375 18.3062 6.02332C18.3062 6.76289 17.684 7.37619 16.9338 7.37619ZM2.89946 7.17777V10.0459C2.89946 11.3085 3.94243 12.3367 5.22328 12.3367H11.3896V13.7076C11.3896 14.2308 10.9505 14.6637 10.4198 14.6637H4.1986L2.78967 16.0526C2.73478 16.1067 2.66159 16.1428 2.5701 16.1428C2.40542 16.1428 2.25904 15.9985 2.25904 15.8362V14.6456H1.39904C0.850111 14.6456 0.410965 14.2127 0.429263 13.6535V8.1338C0.429263 7.61069 0.868409 7.17777 1.39904 7.17777H2.89946Z" fill="#2B869E"/>
</svg>
