<svg width="30" height="24" viewBox="0 0 30 24" fill="none" xmlns="http://www.w3.org/2000/svg">
<path fill-rule="evenodd" clip-rule="evenodd" d="M0.0390857 8.10187L2.78546 2.31281C2.84138 2.19501 2.9516 2.11113 3.08129 2.08762L14.4141 0.0349121L11.0954 7.40781C11.036 7.53987 10.9093 7.63033 10.7636 7.64487L0.449587 8.67258C0.13452 8.70398 -0.0951104 8.38477 0.0390857 8.10187ZM14.4534 17.9559V6.17122C14.4534 5.73061 13.8383 5.61061 13.6682 6.01809L12.3498 9.17571C12.2917 9.31458 12.16 9.4101 12.0083 9.42323L3.25652 10.1816C3.04187 10.2002 2.87886 10.3802 2.88445 10.5927L3.06243 17.3672C3.06736 17.5535 3.20137 17.7121 3.38626 17.7504L13.6892 19.8876C13.9978 19.9516 14.3126 19.9759 14.626 19.9607C14.4141 18.8232 14.4534 17.9559 14.4534 17.9559ZM14.4141 0.0349121L17.9257 7.63828C17.9871 7.77117 18.1166 7.8608 18.2643 7.87253L28.5588 8.68893C28.869 8.71351 29.0918 8.40024 28.9626 8.12099L26.2778 2.31669C26.2223 2.19664 26.1107 2.11113 25.9789 2.08772L14.4141 0.0349121ZM23 24C19.134 24 16 20.866 16 17C16 13.134 19.134 10 23 10C26.866 10 30 13.134 30 17C30 20.866 26.866 24 23 24ZM25.8284 14.1716C25.4379 13.7811 24.8047 13.7811 24.4142 14.1716L23 15.5858L21.5858 14.1716C21.1953 13.7811 20.5621 13.7811 20.1716 14.1716C19.781 14.5621 19.781 15.1953 20.1716 15.5858L21.5858 17L20.1716 18.4142C19.781 18.8047 19.781 19.4379 20.1716 19.8284C20.5621 20.219 21.1953 20.219 21.5858 19.8284L23 18.4142L24.4142 19.8284C24.8047 20.219 25.4379 20.219 25.8284 19.8284C26.2189 19.4379 26.2189 18.8047 25.8284 18.4142L24.4142 17L25.8284 15.5858C26.2189 15.1953 26.2189 14.5621 25.8284 14.1716Z" fill="#2B869E"/>
</svg>
