<svg width="25" height="21" viewBox="0 0 25 21" fill="none" xmlns="http://www.w3.org/2000/svg">
<path fill-rule="evenodd" clip-rule="evenodd" d="M6.3144 0.868347H22.7528C23.7171 0.868347 24.5281 1.65422 24.5281 2.63657V12.8093C24.5281 13.7698 23.7391 14.5775 22.7528 14.5775H21.1747V16.7605C21.1747 17.0879 20.9117 17.3281 20.6048 17.3281C20.4514 17.3281 20.3199 17.2626 20.2103 17.1534L17.6459 14.5775H6.3144C5.35002 14.5775 4.53906 13.7916 4.53906 12.8093V2.63657C4.53906 1.67605 5.3281 0.868347 6.3144 0.868347ZM7.19112 7.98488C7.19112 8.8799 7.93632 9.62212 8.83495 9.62212C9.7555 9.62212 10.4788 8.8799 10.4788 7.98488C10.4788 7.08986 9.73358 6.34764 8.83495 6.34764C7.93632 6.34764 7.19112 7.08986 7.19112 7.98488ZM14.5993 9.62212C13.7007 9.62212 12.9555 8.8799 12.9555 7.98488C12.9555 7.08986 13.7007 6.34764 14.5993 6.34764C15.498 6.34764 16.2432 7.08986 16.2432 7.98488C16.2432 8.8799 15.498 9.62212 14.5993 9.62212ZM18.698 7.98488C18.698 8.8799 19.4432 9.62212 20.3418 9.62212C21.2404 9.62212 21.9856 8.8799 21.9856 7.98488C21.9856 7.08986 21.2404 6.34764 20.3418 6.34764C19.4432 6.34764 18.698 7.08986 18.698 7.98488Z" fill="#2B869E"/>
<path d="M3.53085 12.853V9.38202H1.73359C1.09798 9.38202 0.57195 9.90594 0.57195 10.539V17.2189C0.550032 17.8957 1.07606 18.4196 1.73359 18.4196H2.76373V19.8603C2.76373 20.0568 2.93907 20.2315 3.13633 20.2315C3.24592 20.2315 3.33359 20.1878 3.39935 20.1223L5.08702 18.4414H12.5391C13.1747 18.4414 13.7007 17.9175 13.7007 17.2844V15.6254H6.31442C4.78017 15.6254 3.53085 14.3811 3.53085 12.853Z" fill="#2B869E"/>
</svg>
