<svg width="30" height="25" viewBox="0 0 30 25" fill="none" xmlns="http://www.w3.org/2000/svg">
<path fill-rule="evenodd" clip-rule="evenodd" d="M8.23171 24.6922C12.0732 24.6922 15 22.1326 15 18.7198C15 15.6107 13.03 14.7558 11.2014 13.9623C9.61777 13.2751 8.14024 12.6339 8.14024 10.6145C8.14024 7.75522 10.2269 6.22311 11.9465 4.96045C13.1518 4.07548 14.1768 3.32287 14.1768 2.33846C14.1768 1.05866 13.3537 0.461426 12.1646 0.461426C9.2378 0.461426 0 5.32464 0 15.0511C0 21.6207 3.38415 24.6922 8.23171 24.6922ZM23.2317 24.6922C27.0732 24.6922 30 22.1326 30 18.7198C30 15.6107 28.03 14.7558 26.2014 13.9623C24.6178 13.2751 23.1402 12.6339 23.1402 10.6145C23.1402 7.75522 25.2269 6.22311 26.9465 4.96045C28.1518 4.07548 29.1768 3.32287 29.1768 2.33846C29.1768 1.05866 28.3537 0.461426 27.1646 0.461426C24.2378 0.461426 15 5.32464 15 15.0511C15 21.6207 18.3841 24.6922 23.2317 24.6922Z" fill="white"/>
</svg>
